<?xml version="1.0" encoding="UTF-8"?>
<svg version="1.1" viewBox="0 0 800 956" width="200" height="239" xmlns="http://www.w3.org/2000/svg">
<path transform="translate(399,1)" d="m0 0 4 1 6 8 7 8 8 7 13 10 18 11 21 11 25 10 27 9 38 9 31 5 41 4h72l38-4 26-4 20-4h6v615l-10 40-7 19-8 16-8 14-13 17-12 13-14 13-13 10-19 12-15 8-25 10-31 10-40 10-47 10-43 9-21 6-22 9-17 9-18 12-16 12h-3l-5-5-17-12-20-12-17-8-27-9-25-6-50-10-47-11-28-8-21-7-26-11-18-10-17-12-14-12-12-11-7-8-13-17-9-15-10-21-7-21-7-28-1-2v-621l9 1 34 6 33 4 26 2h54l26-2 27-3 24-4 31-7 27-8 22-8 20-9 19-10 15-10 14-11 15-15z" fill="#128756"/>
<path transform="translate(399,1)" d="m0 0 4 1 6 8 7 8 8 7 13 10 18 11 21 11 25 10 27 9 38 9 31 5 41 4h72l38-4 26-4 20-4h6v615l-10 40-7 19-8 16-8 14-13 17-12 13-14 13-13 10-19 12-15 8-25 10-31 10-40 10-47 10-43 9-21 6-22 9-17 9-18 12-16 12h-3l-5-5-17-12-20-12-17-8-27-9-25-6-50-10-47-11-28-8-21-7-26-11-18-10-17-12-14-12-12-11-7-8-13-17-9-15-10-21-7-21-7-28-1-2v-621l9 1 34 6 33 4 26 2h54l26-2 27-3 24-4 31-7 27-8 22-8 20-9 19-10 15-10 14-11 15-15zm0 97-9 11-17 13-9 6-14 8-23 10-30 10-25 6-36 6-21 2-17 1h-33l-36-3-38-6-5-1h-7l-1 22v477l5 22 7 21 8 17 10 16 9 11 17 17 18 13 16 9 15 7 21 8 32 9 35 8 48 10 21 6 20 8 16 9 16 11 6 5 5-1 17-12 13-8 19-9 21-7 27-6 40-8 31-8 30-9 17-6 23-11 15-10 14-12 5-4v-2l4-2 7-8 11-15 9-16 8-20 6-23 2-11 1-11-1-226v-258l-1-1-10 1-23 4-37 4-13 1h-39l-31-3-23-3-24-5-16-4-20-6-25-10-21-11-14-10-10-8-10-10-3-5z" fill="#E83236"/>
<path transform="translate(389,360)" d="m0 0h23l26 4 23 7 21 10 16 11 14 12 12 12 11 14 9 14 6 12 8 20 5 19 2 19v22l-2 18-6 23-7 17-11 20-12 16-11 12-7 7-17 13-13 8-19 9-15 5-16 4-15 2h-29l-19-3-21-6-15-6-17-9-16-12-10-9-7-6-9-11-8-11-9-15-11-26-5-19-3-18v-23l1-16 7-27 6-15 10-19 7-10 8-11 6-7 8-7 9-8 14-10 28-14 14-5 21-5z" fill="#E3F8F8"/>
<path transform="translate(401,60)" d="m0 0 5 5 7 8 10 10 19 13 18 10 17 8 25 9 29 8 32 6 33 4 12 1 38 1 33-1 42-5 26-5h5l1 10v525l-2 16-5 21-6 18-9 19-8 12-9 12-11 12-13 13-19 14-21 12-19 8-27 9-30 8-41 9-49 10-26 8-25 12-11 7-17 12-4 3-5-2v-2l-4-2-16-11-16-9-15-7-18-6-29-7-49-10-38-9-35-11-20-8-16-8-16-10-12-10-8-7-17-17-12-17-9-16-8-19-7-27-2-9-1-11v-538l9 1 30 5 32 4 38 2 29-1 32-2 34-5 23-5 25-7 23-8 24-11 14-8 14-10 11-9 4-2 1-3 5-5zm-2 38-9 11-17 13-9 6-14 8-23 10-30 10-25 6-36 6-21 2-17 1h-33l-36-3-38-6-5-1h-7l-1 22v477l5 22 7 21 8 17 10 16 9 11 17 17 18 13 16 9 15 7 21 8 32 9 35 8 48 10 21 6 20 8 16 9 16 11 6 5 5-1 17-12 13-8 19-9 21-7 27-6 40-8 31-8 30-9 17-6 23-11 15-10 14-12 5-4v-2l4-2 7-8 11-15 9-16 8-20 6-23 2-11 1-11-1-226v-258l-1-1-10 1-23 4-37 4-13 1h-39l-31-3-23-3-24-5-16-4-20-6-25-10-21-11-14-10-10-8-10-10-3-5z" fill="#FBEE13"/>
<path transform="translate(389,360)" d="m0 0h23l26 4 23 7 21 10 16 11 14 12 12 12 11 14 9 14 6 12 8 20 5 19 2 19v22l-2 18-6 23-7 17-11 20-12 16-11 12-7 7-17 13-13 8-19 9-15 5-16 4-15 2h-29l-19-3-21-6-15-6-17-9-16-12-10-9-7-6-9-11-8-11-9-15-11-26-5-19-3-18v-23l1-16 7-27 6-15 10-19 7-10 8-11 6-7 8-7 9-8 14-10 28-14 14-5 21-5zm-28 24-5 4-8 17-11 8-6 7v2l-6-2-7-5h-7l-12 6-14 9-11 8v4l14 4 17 1 15 2-2 7-8 13-4 3-7-1-12-7-3-2-6 1-10 10-2 1v2l-4 2-8 8-8 4-3 5-1 12 2 4 7 3 7-1 26-10 14-6 7-1 8 4-7-2h-6l-10 4-7 3-16 6-9 3-3 2-6-1-8-2 1 7 5 6 12 7 9-1 32-14 14-5h7v7 1l-6 2-1-6-7 1-20 8-18 8-5 2-7-1-13-9h-3v13l4 24 4 13 2 2 5-1 6-8 14-10 8-9 7-11 10-5 12-3 3-3v4l-6 3-13 4-8 7-12 16-11 8-5 4v5l-9 2 1 7h2v5l7 4h10l3-4v-3h2v-3h2l7-10 8-7 12-9 14-7h7l2 1h9l13-4 8-4 8-9 5-13v-3h2l-2 13 5 4 15 4h19l11-4 9-8 2-8 11 3 10 4 9 1 15-15 7-8 8-8 6 1 9 8 10 8 8 9 3 10 6 5 1 7 6-1 6-3-1-7-6-8-6-5-5-4-5-5-12-11-15-11-5-1-8 5-18 11h-3l1-2-2-1 8-4 10-9 10-6 6 1 7 4 13 10 9 7 7 2 7 9 4 1 3-1v-2l3-1-1-12-2-2-16-5-19-7-11-7-9-6-6 1-8 7-4 5-6 5-5 1-4 1v-2l6-1 12-11 5-5 4-3 5-1 8 4 14 9 14 6 15 5 8 2 2 1v10l1 5-3 3-7 4 2 5 6 10v5l-8 8-7 1-3-2-4-8-3-4-3-10-7-8-7-7-8-7-4-4h-4l-4 6-6 7-16 16-4 2h-7l-12-4-7-2-6 8-10 7-10 3h-19l-12-3-6-3-5 1-8 8-14 7-7 2h-21l-14 7-14 12-7 8-6 10v2h159l106-1 6-12 6-17 4-20v-40l-5-25-4-8-12-6-5-3-3-1-10 1-6-5-7-8h-2l-1-3-4-1-12 6-17 9-16 5-1 7-7-28-1-5v-7l3-2 1-3h26l-1-5v-3l-3-7-10-9-11-11-3-2-8 1-13 5-7 6-4 12-4 16-5 10-3 2-6-2-4-8 1-4 4-4 4-10 4-5-1-5h-12l-9 2h-2l-1-4-9-15-5-5z" fill="#F7FBFB"/>
<path transform="translate(500,447)" d="m0 0 5 2v2l4 2 9 10 7 1 6-1 6 3 7 4 6 3 4 8 5 25v40l-5 23-8 21-3 5-115 1h-150l2-6 9-12 13-12 14-8 3-1h21l11-4 10-5 9-9 6 1 11 4 5 1h19l10-3 10-7 4-5 2-3 9 3 10 3h7l6-4 11-11 7-8 5-6 1-2 5 1 9 9 8 7 7 7 3 9 3 6 4 6 2 4 6 1 5-3 6-6-1-7-7-11 1-3 8-4 1-5-1-2v-10l-4-2-13-3-20-8-15-9-6-4-5-1-6 3-14 14-6 4h-4l-2-5-1-17-1-6 18-6 19-10z" fill="#0099E3"/>
<path transform="translate(388,365)" d="m0 0h26l20 3 17 5 21 9 14 8 11 8 10 8 15 15 13 18 12 22 4 7v6l-11-5-7-4-3-1-10 1-7-6-6-7-5-4-9 3-14 8-8 4-16 4 1 5-2 7h-1l-2-14-4-13-2-11v-7l3-2 2-4h24l2 1-1-4-2-1 2-1-4-9-8-7-12-12-3-2-8 1-13 5-6 5-4 12-4 16-5 10-4 3-6-2-5-9 1-4 4-4 4-10 4-5v-5l-12 1-9 2-2-1-6-11-7-10-2-2h-7l-5 5-8 16-11 8-6 8h-5l-8-6h-7l-12 6-14 9-11 8 1 3 13 3 17 1 15 2 1 2-2 6-8 13-5 4-7-1-12-7-3-2-6 1-10 10h-2v2l-8 7-6 5-6 3h-2l2-9 7-21 8-16 7-11 4-6h2l2-4 8-10h2l2-4 10-9h2v-2l18-12 15-8 17-6 16-5z" fill="#FBEE16"/>
<path transform="translate(361,384)" d="m0 0h7l7 8 8 13v3l8-1 3-1h12l1 5-5 7-3 8-5 5 1 4 4 8 6 1 6-9 4-13 4-16 4-5 6-4 14-5h5l10 9 16 16 2 6-1 2 1 4h-26l-2 4-3 1-1-4-10 4-14 9-3 2h-3l-1 2-4 2h-4v6l-12-7v-6l-5 3-6 8-5 3v6l-6-2-1-4 5-1 2-4 7-7h2v-7l-8-1-6 4-9 8h-2l-2 5-1 2v7l4 6 10 9 9 4v2l-6 1-2-4-5-2-6-3h-2l-2 4v7l-18 6-3 4 1 5 2 3 5-1 12-7 6-3 2-2h3v9l5-2 1 3h-2v2l-5 1-3-2-1-4-9 3-11 6-5 2-3-3-1-3-6-1-4 4-2 7h-8l-21 8-25 11-9 1-13-8-4-5-1-7 8 2 6 1 9-4 5-2 17-6 9-4 5-2 9 1h3l-7-3-9 2-27 11-13 5-7-1-6-3-1-7 2-11 3-3 8-4 9-9h2v-2l8-7 6-5 6 1 11 7 5 2 6-1 5-6 5-9 2-7-15-2-17-1-13-3-2-4 5-4 13-9 15-9 5-2h7l8 6 5 1 2-4 6-7 9-6 8-17z" fill="#E3F9F8"/>
<path transform="translate(683,415)" d="m0 0h2v3l10 1v-2l5-1-1 3-14 11-7 8-7 11-7 16-4 15-2 6-1 7 5-2 11-10 8-7 8-10 8-15 2-1-2 8v3h4l-1 4-13 10-4 2-1 3-3 3-1 2h-2l-2 4-6 10-6 16-3 11-2 7v8h2l5-5 10-9 5-5 5-6 6-9 6-13 3 1-3 6v3l5 1-1 4-12 9-9 9-9 13-6 13-5 18-3 8v7l22-18 6-7 8-13 1-3 3-1 3 5 6 2-2 1-1 3-12 7-9 7-7 8h-2l-2 4-7 10-5 11-4 10-4 7-1 4 7-3 17-10 12-11 10-14 8-16h2l1-3-1 7-6 10-4 8v4l1 5 4-1v3l-8 3-10 4-12 8-15 14-7 10-6 11-5 6-2 5 11-4 20-9 9-7 9-9 2-3h2l-2 13-12 9-15 6-12 7-10 8-8 8-7 8-5 5-1 3 25-5 14-5 11-7 8-7h2l2-4 7-6 1-2h2l2-4 4-2-3 5-7 8v5l-6 4-3 4-3 5-6 4-9 3h-4v2l-17 5-15 8-12 9-9 7-3 2v3l20 1v1l-16 1 1 3 2 2-24 11-6 3-1 3 8 2v2l5 1-2 3-18 4-22 8-5 3-1 3 2 1-2 1 5 3 5 1v1l-17 3-17 6-4-2-1-3 2-6 2-3 1-6h3l3-6 8-2 2 1-1-10 2 4 2 11 4-2 10-21 5-13 3-11h2l1-2v2h2l4 15 4 8 2-1 8-28 2-9 3-3 1 2 3-1 2-6 1-2 7 11 4 1 1-7 1-40 3 1 1 2 1-6 5 5 8 10 2-2-1-21-1-19 2-6 3-4 4 2 9 7 3 1-1-7-4-17-2-8 1-8 2-4v-3l7 5 4 4 2-4-6-26-5-12-8-12-11-12-3-2v-2l-5-2-3-3v-2h2l1-3 4-1 1 3 3 3 9 13 15 14 9 6v-7l-4-12-4-16-7-14-9-12-2-4 3 1 5 5 7 6 8 8 4 1-1-9-7-25-8-16-9-11-6-5v-2l-5-2-6-5-5-6 1-5 4 2 10 13 7 6 7 4v2l5 2 7 4h8l8-8 10-14 5-11z" fill="#128756"/>
<path transform="translate(198,406)" d="m0 0 1 2-7 16-1 6h-2l-2 4-10 9h-2l-1 3-6 5-8 10-8 15-4 16-4 12v8l11-9 12-11 6-8 6-11 1-2h2l1-2 1 4h5l1 3-13 10-4 4h-2l-2 4-7 9-6 10-6 16-3 15-2 4v7l7-6 2 1-3 4 5 2 1 4-5 17-3 11-1 7v2l5-3 9-8 7-6h2l2-4 9-15 3-7 2-1 2-4 7 6-3 5-12 11-8 11-6 11-5 19-4 16v6l4-1 5-5 5 1 6-1 3-4-3 21-1 17v13l4-1 4-4 3 1 4-1h2l2-8h1v31l1 17 4 1 10-17 5-12 3-15 3 4-4 18v17l5 23 6 19 3-4 5-13 3-15 2-2 3 18 8 21 8 17 1 3 3-2 4-20 1-11 2 3 6 19 8 15 7 10 3 4-1 5-7-1-19-7-14-3-20-1 1-2 23-6 1-3-5-1-24-9-9-2v-2l4-1 1-4h-7v-1l5-1 1-3-5-2-3-3 1-2-3-7-8-2-5-3-11-2v-1h11l-1-3-11-8-10-8-13-8-16-6-10-3-10-1-1-7 1-2-4-4 5 1 8 6 14 5 19 4 8 1-7-8-8-10-6-5-5-5-14-9-12-5-5-2v-2l-7-1-1-4 2-3 5 1 9 6 11 5 16 6h2l-3-6-6-10-8-12-9-10-8-7-15-9-3-1-1-2-6-2 3-4h2l1-2 7 6v2l4 2 13 8 14 8 1-4-5-10-7-16-2-5 3-1 3 1-2-3h3v-8l-4-14 1-3 2-1 1 4h2l-1-2v-10h-2l-2-6v-2l-2-1 1-2 4 1v-9l-4-15-6-17-9-13-9-10-4-3v-2l-4-2-4-4v-2l-4-2h4l1-3 4 2 7 11 4 5 8 7 10 9 5 3v-8l-8-26-9-17-9-12-7-6v-4l3 1 4 3 1-4v2h2l5 13 8 11 9 10 1 2h2l1-4h2l1-5 1 3-2 9 8-4 13-10 8-6 8-9 9-15 4-9z" fill="#128756"/>
<path transform="translate(360,474)" d="m0 0 6 2 7 4 2 3 6 1v3l-7 3-1 2 5 1 3-1 6 2-1 5-4-2-1 3 11 8 3 4v2h2l1 4h-3v2l-4 4v5l2 6v2l-4 2-17-4 2-13h-2l-2 9-4 8-7 8-10 5-11 3h-9l-2-1h-7l-17 9-10 8-8 7-6 9h-2v3h-2l-1 5-3 2h-9l-7-4v-5l-2-1-1-6 9-2v-5l18-14 8-11 7-8 8-4 11-3 3-2-1-4-2 3-15 4-7 4-10 15-7 7-13 9-6 8-5-1-3-7-4-17-2-14v-13l4 1 14 9 8-1 15-7 27-11h5l1 6 7-2-1-1 1-11 3-6 3-2 6 1 2 6 6-1 6-4 13-6 3 1 1 4 7 1v-4l-4 1v-9l-5 3-20 11-4-1-3-5 1-5 5-4 14-4 1-1v-6z" fill="#BB946E"/>
<path transform="translate(400,109)" d="m0 0 3 1 2 4 3 13 8 25 1 5h50v4l-15 9-5 5-17 12-1 4 12 36 2 4v5l-5-1-10-8-16-11-9-8-5 2-10 8-18 13-8 6-3-1 6-18 7-20 3-9-9-7-16-11-15-10-1-3 7-1 9 1h34l9-27 6-21z" fill="#FBED14"/>
<path transform="translate(389,735)" d="m0 0h22l1 1v8l-1 7 13 3h4l6-11 3-1 12 6 7 5-2 5-5 5 1 5 6 5v2l6 1 8-7 5 1 5 9 4 5v5l-8 5-4 2 2 6 1 5-14 7-5-1-9-15-8-10-14-9-12-5-7-1h-15l-11 3-12 6-9 8-7 10-7 14-7-1-13-5v-6l2-4v-5l-5-3-6-2 1-6 8-11 3-4h5l5 6 7-1 6-5-2-5-5-6 1-4 17-10 4 1 4 8 1 3 7-1 12-2-2-6v-9z" fill="#FBEE14"/>
<path transform="translate(228,658)" d="m0 0 3 1 3 8 5 17 3 15v4h2l1-6 3-12h3l4 5 8 17 5 15 2 9 2-16 1-3 5 2 8 11 8 13 8 18 3 15v21l-2 6-4-2-8-12-9-14-6-13-4-14-4 25-3 5h-2l-8-16-7-17-4-13-2-11-4 18-5 12-3 3-3-7-6-21-3-15v-17l4-16z" fill="#FAED14"/>
<path transform="translate(355,445)" d="m0 0h5l-2 6-4 4v9l1 3v8l-2 4-1 6-6 3-8 2-6 7-9 6-10-3-8-4-9 2-27 11-13 5-7-1-6-3-1-7 2-11 3-3 8-4 9-9h2v-2l8-7 6-5 6 1 11 7 5 2 6-1 5-6 5-9 2-6h22z" fill="#0099E2"/>
<path transform="translate(415,481)" d="m0 0h5l1 5v7l1-2 3-1 10 2 8 1h8l2 1 3 9 5 5h6l14-9 5-3 7-4 7 2 16 13 10 9 5 5 9 7 6 7 2 4v5l-8 4-4-1-2-7-5-4-3-10-11-12-14-11-4-3-5 1-13 13-7 8-5 6-4 3-9-1-11-4-10-3-2 8-9 8-11 4h-19l-15-4-4-4 17 3 3-1-2-4 2-2 9 4h5v-2l-10-2-4-3 1-4 4-5 3-5 3-1 4 3 1 9 5 6 1 3h2l-1-6-5-2-1-6 5-10-2 2-4-1-5-5-1 3-2-1v-6l1-3-8-6-1-4 11-5z" fill="#BC966D"/>
<path transform="translate(198,406)" d="m0 0 1 2-7 16-1 6h-2l-2 4-10 9h-2l-1 3-6 5-8 10-8 15-4 16-4 12v8l11-9 12-11 6-8 6-11 1-2h2l1-2 1 4h5l1 3-13 10-4 4h-2l-2 4-7 9-6 10-6 16-3 15-2 4v7l7-6 2 1-3 4 5 2 1 4-5 17-3 11-1 7v2l5-3 9-8 7-6h2l2-4 9-15 3-7 2-1 2-4 7 6-3 5-12 11-8 11-6 11-5 19-5 22-1 7-4-2-9-13-10-10-15-10-7-3-1-2-6-2 3-4h2l1-2 7 6v2l4 2 13 8 14 8 1-4-5-10-7-16-2-5 3-1 3 1-2-3h3v-8l-4-14 1-3 2-1 1 4h2l-1-2v-10h-2l-2-6v-2l-2-1 1-2 4 1v-9l-4-15-6-17-9-13-9-10-4-3v-2l-4-2-4-4v-2l-4-2h4l1-3 4 2 7 11 4 5 8 7 10 9 5 3v-8l-8-26-9-17-9-12-7-6v-4l3 1 4 3 1-4v2h2l5 13 8 11 9 10 1 2h2l1-4h2l1-5 1 3-2 9 8-4 13-10 8-6 8-9 9-15 4-9z" fill="#128756"/>
<path transform="translate(692,654)" d="m0 0 2 1-9 11-1 4v2l-6 4-3 4-3 5-6 4-9 3h-4v2l-17 5-15 8-12 9-9 7-3 2v3l20 1v1l-16 1 1 3 2 2-24 11-6 3-1 3 8 2v2l5 1-2 3-18 4-22 8-5 3-1 3 2 1-2 1 5 3 5 1v1l-17 3-17 6-4-2-1-3 2-6 2-3 1-6h3l3-6 8-2 2 1-1-10 2 4 2 11 4-2 10-21 5-13 3-11h2l1-2v2h2l4 15 4 8 2-1 8-28 2-9 3-3 1 2 3-1 2-6 1-2 7 11 4 1 1-7 1-40 3 1 1 2 1-6 5 5 8 10h2l-2 7-2 6-3 5 25-5 14-5 11-7 8-7h2l2-4 7-6 1-2h2l2-4z" fill="#128756"/>
<path transform="translate(293,604)" d="m0 0h12l28 10 9 2h12l45-12h7l20 8 21 8h10l26-8 15-3 21 2 11 3-1 5-5 6-4 1-11-3h-12l-32 8-11 3-9-1-11-4-17-8-8-2h-12l-16 4-17 5-5 1h-13l-12-3-12-5-5-1h-20l-18 4-5-1-4-4v-5l5-3z" fill="#0098DC"/>
<path transform="translate(683,375)" d="m0 0h4l1 5-1 19-4 21-4 11-7 12-9 11-6 6h-8l-12-7v-2l-5-2-8-6-8-9-8-13-7-16-5-13 1-3 6 2 14 8 11 10 9 13 12 24 3 9 2 1 2-19 3-24 5-13 7-12z" fill="#FAED14"/>
<path transform="translate(205,758)" d="m0 0h8l22 5 21 8 5 2-1 4-23 6 19 1 17 4 21 8 6 3-5 5-21 5h-17l-24-6-20-7-2-1 1-4 3-2 11-3 1-1-26-5-19-7-9-5-1-3 15-4 8-2z" fill="#FBEE13"/>
<path transform="translate(500,447)" d="m0 0 5 2v2l4 2 9 10 7 1 6-1 6 3 7 4 6 3 4 8 5 25v40l-1 5h-1v-43l-2-3-1 5 1 7-2 1-1-13v-4l-4-2-13-3-20-8-15-9-6-4-5-1-6 3-14 14-6 4h-4l-2-5-1-17-1-6 18-6 19-10z" fill="#0099DF"/>
<path transform="translate(414,656)" d="m0 0h12l15 6 13 6 5 2-1 4-3 2-16 4-20 4h-36l-17-3-20-6-19-8-11-6-1-4h16l15 5 13 4h18l14-3 17-6z" fill="#0098DD"/>
<path transform="translate(314,639)" d="m0 0 11 2 15 6 4 1h21l20-5 9-3 5-1h16l19 9 11 4 5 1h9l19-5 21-5h6v3l-13 10-14 8-7 2-9-1-13-5-15-7-7-2h-14l-12 3-20 6-6 1h-14l-13-4-11-4-5-1h-28l-9-6-2-5 2-1z" fill="#0098D8"/>
<path transform="translate(388,781)" d="m0 0h24l11 4 8 5 9 8 8 14 1 6-11 3h-7l-7-9v-2l-4-2-9-5-9-2h-7l-9 3-6 4-7 8-3 5h-8l-10-4-1-3 8-14 10-10 10-6z" fill="#FBEE14"/>
<path transform="translate(161,338)" d="m0 0 3 1 2 9 2 12 1 16v17l-2 12-5 13-8 15-4 6-4 2-2-3-2-15-1-14v-24l3-17 6-14 9-14z" fill="#FBEE14"/>
<path transform="translate(636,339)" d="m0 0 4 2 9 15 5 11 4 16 1 18-4 35-2 6h-3l-4-5-7-14-3-5-5-17v-40l3-13z" fill="#FBEE14"/>
<path transform="translate(312,417)" d="m0 0 5 1 11 6 7 4 7-1 18-8 7 1 21 8v3l-7 1-7 3-8 3-6 3-2 2-9 2-9 3h-8l-20-3-15-3h-12l-7-2v-2l12-7 13-8z" fill="#118859"/>
<path transform="translate(309,517)" d="m0 0h5l1 11-2 3-15 4-7 4-10 15-7 7-13 9-6 8-5-1-3-7-4-17-2-14v-13l4 1 14 9 8-1 15-7z" fill="#0098DD"/>
<path transform="translate(441,430)" d="m0 0h3l3 16 4 16 2 7v11h-13l-7-1-3-1v-2l12-3 1-2-16 4h-6l-5 3-11 3-5-1v-4l16-4 13-2 12-3-1-1-7 1-4 2h-7v2l-8-1v2h-22v-8l5-8h4l2 2v-3h2v-6l8-3 12-7 11-7z" fill="#BA9470"/>
<path transform="translate(398,624)" d="m0 0h7l13 4 20 9 7 2h11l31-8 7-2h18l5 5-2 2-19 2-39 10-11-1-11-5-16-7-6-2h-10l-15 3-19 6-7 1h-14l-13-4-16-5h-19l-15 2-4-4v-3l15-4h17l28 9 5 1h11l17-4 18-6z" fill="#0097D4"/>
<path transform="translate(705,564)" d="m0 0h1l-1 7-6 10-4 8v4l1 5 4-1v3l-8 3-10 4-12 8-15 14-7 10-6 11-5 6-2 5 11-4 20-9 9-7 9-9 2-3h2l-2 13-12 9-15 6-12 7-10 8-8 8-7 8-3 1 1-6 3-7-1-21-1-19 2-6 3-4 4 2 9 7 3 1 5-10 2 2 2-5 8-7 14-8 12-11 10-14 8-16h2z" fill="#128756"/>
<path transform="translate(489,473)" d="m0 0 9 3 10 7 16 8 18 6 8 2 3 2v10l1 5-4 4-6 3 2 5 6 10v5l-9 9-7 1-4-3-4-8-3-4-3-10-7-8-12-11-3-5-3-4 4 2 17 14 9 10 2 10 4 2 3 3 1 6 5-1 3-2h3l-3-9-8-9-6-4-5-5-13-12-15-11-5-1-8 5-18 11h-6l3-2-2-3 8-3 12-11 9-5 6 1 7 4 13 10 9 7 7 2 6 7 3 3h5v-2l2-1-1-12-9-3-27-10-11-7-9-6-6 1-8 7-4 5-6 5-5 1-4 1-1-5 1 2 7-3 10-9 4-5 6-4z" fill="#F8FBFB"/>
<path transform="translate(96,460)" d="m0 0 5 2 9 6v2l4 2 8 8 9 13 4 8 6 18 2 9v9l-2 1-4-2-5-5-15-14-1-3h-2l-8-14-7-18-3-14z" fill="#F7EC15"/>
<path transform="translate(96,504)" d="m0 0 5 2 9 6v2l4 2 8 8 10 15 6 16 5 18v8l-2 1-11-9-12-11-7-8-8-17-6-18-2-9v-5z" fill="#F7EC15"/>
<path transform="translate(547,687)" d="m0 0 5 1 4 17v21l-5 17-11 24-4 6h-4l-4-20v-12l3-19 8-20 4-7z" fill="#F7EC15"/>
<path transform="translate(701,505)" d="m0 0h4l-1 8-7 24-8 16-8 11-9 8-11 9h-2l-1 3h-2l-1-7 5-14 4-14 8-16 6-8 6-7 13-10z" fill="#F8EC15"/>
<path transform="translate(92,549)" d="m0 0 9 3 14 9 11 11 9 12 8 16 5 12 2 3-1 5-10-5-10-6-9-6-5-5-6-8-9-15-8-19-1-6z" fill="#F8EC14"/>
<path transform="translate(189,431)" d="m0 0h3v7l-7 23-6 15-7 11-11 12-14 12-3 1-1-2 1-9 3-9 4-16 9-17 12-13 8-7z" fill="#F7EC15"/>
<path transform="translate(606,478)" d="m0 0 6 1 13 10 5 5 8 10 7 12 5 15 4 16 1 7-1 2-5-2-12-11-9-8-9-14-6-16-6-21z" fill="#FBEE13"/>
<path transform="translate(443,392)" d="m0 0h5l10 9 16 16 1 4-3 1-15 1-10-1-4-16v-2h-3l1 11 2 10-8 3-8 5h-2v2h-3v2l-11 6-6 2 6-10 4-13 4-16 4-5 6-4z" fill="#B79370"/>
<path transform="translate(686,649)" d="m0 0h9l-2 5-5 6h-2l-2 4-7 6-5 5-10 8-14 7-15 4-10 2h-7l1-4 10-10 7-8 10-9 13-8 12-5 7-2z" fill="#FBEE13"/>
<path transform="translate(105,647)" d="m0 0h9l12 2 15 6 15 9 6 5v2l4 2v2l4 2 8 10 6 7v1l-9-1-22-5-12-5-11-8-10-9-8-8-7-8z" fill="#F8EC14"/>
<path transform="translate(700,599)" d="m0 0h4v5l-10 16-11 14-11 11-14 8-19 8h-4l2-6 7-10 8-14 12-12 10-8 14-8 10-3z" fill="#F8EC15"/>
<path transform="translate(605,521)" d="m0 0 5 1 8 6v2l4 2 8 8 9 13 6 12 5 20 2 11-3 3-4-3v-2l-4-2-8-7-9-9-4-5-7-15-5-16-3-11z" fill="#FBED14"/>
<path transform="translate(702,461)" d="m0 0 2 1-1 10-5 17-7 16-4 6-6 8-5 6-11 9-3 3h-2l-1 3-3-1v-8l4-13 4-14 7-14 5-7h2l2-5 8-7 12-9z" fill="#F8EC14"/>
<path transform="translate(201,387)" d="m0 0h3l-1 6-10 23-9 15-11 12-18 13-6 4h-3l1-9 8-17 8-16 7-9 9-9 13-8z" fill="#F7EC15"/>
<path transform="translate(706,550)" d="m0 0 2 1-1 8-3 8-8 16-10 14-9 9-11 7-13 8h-4l1-6 6-12 5-12 6-9 5-7h2l2-4 8-8 11-7z" fill="#F8EC15"/>
<path transform="translate(190,475)" d="m0 0 3 1-2 10-5 18-7 17-8 11-7 9-14 11-3 3h-2l-1-7 3-7 3-15 7-17 9-13 5-6 11-9z" fill="#FBED14"/>
<path transform="translate(94,414)" d="m0 0 5 2 11 8 8 7 10 15 7 15 7 23v6l-1 2-5-2-7-7-9-7v-2l-4-2-9-13-8-19-6-24z" fill="#F8EC14"/>
<path transform="translate(524,713)" d="m0 0 3 1v28l-3 15-6 13-8 13-12 17-3-4-1-21 2-13 5-14 10-18 10-14z" fill="#FBEE13"/>
<path transform="translate(96,598)" d="m0 0 7 1 15 6 12 8 10 9 8 9 8 13 7 11 1 4-5-1-14-5-16-8-10-9-9-11-7-10-7-12-1-4z" fill="#F8EC15"/>
<path transform="translate(198,555)" d="m0 0h3l-1 10-3 16-5 15-8 16-9 10-14 13-4-1v-6l4-16 5-19 8-14 7-9 8-8z" fill="#FBEE13"/>
<path transform="translate(121,691)" d="m0 0h24l20 6 14 8 12 9 10 8 3 2v3h-19l-16-2-15-6-8-4-13-9-13-11z" fill="#FCEE14"/>
<path transform="translate(204,591)" d="m0 0 3 1v19l-2 18-3 12-5 12-9 13-8 10-4-1v-13l2-27 4-13 8-15 11-13z" fill="#FBEE13"/>
<path transform="translate(704,415)" d="m0 0 2 1-1 8-6 21-10 21-14 15-11 9-3 3h-4v-7l5-16 3-9 6-14 7-10 7-8 15-12z" fill="#FBEE13"/>
<path transform="translate(660,692)" d="m0 0h19l-1 5-7 7-16 11-16 8-11 4-11 2h-20l-1-4 12-9 10-8 14-8 16-6z" fill="#FBEE13"/>
<path transform="translate(192,519)" d="m0 0h3l-1 9-4 15-6 16-8 14-5 7-14 11-6 6h-3l-1-7 3-8 5-19 8-16 10-13 10-9z" fill="#F7EC15"/>
<path transform="translate(608,435)" d="m0 0 5 1 11 8v2l4 2 10 11 6 10 6 15 5 19 1 4-1 5-5-1-7-6-5-5-7-6v-2l-3-1-9-16-6-17-5-17z" fill="#FBEE13"/>
<path transform="translate(593,593)" d="m0 0 5 2 13 17 8 16 3 16 2 26v6l-3 3-8-9-9-12-4-7-6-21-1-6-1-29z" fill="#FCEE14"/>
<path transform="translate(598,557)" d="m0 0 5 1 15 14 7 8 8 14 5 18 4 17 1 4-1 3-5-1-15-13-8-11-8-16-5-18-3-14z" fill="#FCEE14"/>
<path transform="translate(159,729)" d="m0 0h14l16 3 15 5 17 8 6 4-1 4-18 4h-17l-19-5-13-5-16-8-3-3 1-3z" fill="#FBED14"/>
<path transform="translate(557,724)" d="m0 0 1 2h2l4 15 4 8 2-1 2-3v4l2 1-1 3 8 2v2l5 1-2 3-18 4-22 8-5 3-1 3 2 1-2 1 5 3 5 1v1l-17 3-17 6-4-2-1-3 2-6 2-3 1-6h3l3-6 8-2 2 1-1-10 2 4 2 11 4-2 10-21 5-13 3-11h2z" fill="#128756"/>
<path transform="translate(581,627)" d="m0 0 4 2 9 15 4 8 5 14v44l-2 4-4-1-6-9-7-12-5-17-1-12v-21l2-13z" fill="#F8EC15"/>
<path transform="translate(548,785)" d="m0 0h17l21 6 2 1-1 4-11 5-19 6-13 3h-22l-12-3-10-3-1-3 15-7 20-7z" fill="#FBEE14"/>
<path transform="translate(215,626)" d="m0 0h3l2 6 1 9v26l-3 15-5 12-8 14-3 4-4-1-1-1-1-17v-26l4-14 5-11 7-11z" fill="#F8EC15"/>
<path transform="translate(568,661)" d="m0 0 4 1 7 20 2 9v20l-7 27-3 10-3 2-4-6-4-13-2-8-1-9v-13l5-23z" fill="#FBEE13"/>
<path transform="translate(113,373)" d="m0 0 5 3 8 8 8 12 5 13 3 19 2 12v17h-4l-9-11-4-5-7-11-5-17-2-11-1-26z" fill="#FBEE14"/>
<path transform="translate(584,760)" d="m0 0h19l21 6 2 1-1 4-17 7-18 5-5 1h-23l-22-4-2-1 1-4 10-5 20-7z" fill="#FBED14"/>
<path transform="translate(625,731)" d="m0 0h19l6 2 9 2-1 4-18 10-18 6-7 2-13 1-15-1-14-3-1-2 4-4 23-11 13-4z" fill="#FBEE14"/>
<path transform="translate(198,406)" d="m0 0 1 2-7 16-1 6h-2l-2 4-10 9h-2l-1 3-6 5-8 10-8 15-4 16-2 6h-2l-2 13-5-1-5-14-9-13-9-10-4-3v-2l-4-2-4-4v-2l-4-2h4l1-3 4 2 7 11 4 5 8 7 10 9 5 3v-8l-8-26-9-17-9-12-7-6v-4l3 1 4 3 1-4v2h2l5 13 8 11 9 10 1 2h2l1-4h2l1-5 1 3-2 9 8-4 13-10 8-6 8-9 9-15 4-9z" fill="#128756"/>
<path transform="translate(300,498)" d="m0 0 9 1 9 5 3 4-1 3-20 7-25 11-10 4h-6l-13-8-4-5-1-7 8 2 6 1 9-4 5-2 17-6 9-4z" fill="#BF9A6A"/>
<path transform="translate(671,274)" d="m0 0h13l1 1-1 12h2l2-10 2-3h13l1 1v37l-1 1h-8l-1-1-1-9-2 9-7 1-1-1-1-9-1 1-1 8-1 1h-8l-1-1v-37z" fill="#FBEE13"/>
<path transform="translate(180,624)" d="m0 0 1 3-2 8-3 41 1 2-1 5-5-3-7-8-11-9-16-9-11-4v-2l-7-1-1-4 2-3 5 1 9 6 11 5 16 6h2l-3-6-6-10 2-7 2-1 4-1 5-5 5 1 6-1z" fill="#128756"/>
<path transform="translate(440,404)" d="m0 0h3l4 15v3h11l16-1 2 2-1 2 1 4h-26l-2 4-3 1-1-4-10 4-14 9-3 2h-3l-1 2-4 2h-4v6l-12-7v-6l-5 3-6 8-5 3v6l-6-2-1-4 5-1 2-4 7-7h2v-7l2-4v-5h2v-2h3l-1-7-1-3h-6l2-6 4-3 3-1h12l1 5-5 7-3 8-5 5 1 4 4 8 8 1 11-6 4-1v-2h3v-2l14-8h4l-3-10z" fill="#E2FAFD"/>
<path transform="translate(361,384)" d="m0 0h7l7 8 7 12v14l-4 1-10-3h-8l-19 8-9 1v-6l7-8 9-6 8-17z" fill="#0099E0"/>
<path transform="translate(389,360)" d="m0 0h23l26 4 23 7 21 10 16 11 14 12 12 12 5 6-1 2-8-7-9-10-5-4-5-5-11-8-16-10-8-4-20-7-11-2-5-2-15-1-12-2h-11l-9 2-11 1-10 4-9 2-21 7-1 3-18 10-11 8h-2v2l-11 9-3 4h-2l-2 4-8 10h-2l-2 5-6 9-7 8-4 7-3 7-5 11-1 9-4 8-1-4 6-21 10-21 7-11 8-12 9-10 5-6 8-7 13-10 15-9 9-4 15-7 16-5 19-4z" fill="#E3FAFD"/>
<path transform="translate(378,435)" d="m0 0 9 1-1 8-8 7-3 4-4 1v3l6 3-1-6 6-4 8-10 3-1 1 5-1 6-4 13-4 3-3-2 4 6 5 3-1 4-4 5-5-2-9-4-13-12-2-4v-7l4-7 11-9z" fill="#128859"/>
<path transform="translate(271,740)" d="m0 0 2 3 6 19 8 15 7 10 3 4-1 5-7-1-19-7-14-3-20-1 1-2 23-6 1-3-5-1-10-4v-2l-2-1 3-6 4-1 2 2 2 6 2 1-1-3h2v2l3 1 2 6 3-2 4-20z" fill="#128756"/>
<path transform="translate(182,469)" d="m0 0 2 4h5l1 3-13 10-4 4h-2l-2 4-7 9-6 10-6 16-3 15-2 4v7l7-6 2 1-3 4 5 2 1 4-5 17-3 11-2 7h-1v-7l-1-5 4 2v-8h-3l-2 9-1 5-4 2-4-7v-2l3-1 3 1-2-3h3v-8l-4-14 1-3 2-1 1 4h2l-1-2v-10h-2l-2-6v-2l-2-1 1-2 4 1v-9l-4-17 3-1 1-9 3-3-1 12v2l11-9 12-11 6-8 6-11 1-2h2z" fill="#128756"/>
<path transform="translate(695,542)" d="m0 0 4 5 6 2-2 1-1 3-12 7-9 7-7 8h-2l-2 4-7 10-5 11-4 10-4 7-1 4 6-1-2 3h-2l-2 7-2-3-3 6-2-1-4-14-3-14 1-8 2-4v-3l7 5 4 4 2-4-3-12 1-4v2l3-1 4-8 1 3-1 8v2l22-18 6-7 8-13 1-3z" fill="#128756"/>
<path transform="translate(537,273)" d="m0 0 6 1 7-1 2 2v37l-1 1h-8l-1-1-1-35-3 14-3 20-5 2-7-1-5-30v-8h8l2 1 1 14 3-14z" fill="#FBEE13"/>
<path transform="translate(478,273)" d="m0 0h6l3 2 3 13v4h2l1-17 7-2 3 2v37l-2 1h-9l-3-12v-4h-2v15l-3 1h-7l-2-4 1-34z" fill="#FBEE1B"/>
<path transform="translate(391,772)" d="m0 0h15l10 2 16 8 9 7 9 12v5l-3-3v-2l-5-2-7-7-16-8-7-2h-24l-11 4-10 7-7 7-8 14h-2l-1 3h-4l2-10 6-10 8-10 9-7 12-6z" fill="#0C815D"/>
<path transform="translate(179,273)" d="m0 0h6l3 3 4 16 1-4 1-14h8l1 1 1 11v13l-1 13-1 1h-9l-1-1-2-13-1-1-1 2v9l-1 3-2 1h-7l-1-1v-37z" fill="#FBEE13"/>
<path transform="translate(221,274)" d="m0 0h15l5 3 2 7v18l-3 8-2 2-4 1h-13l-2-4v-33z" fill="#FBEE13"/>
<path transform="translate(424,274)" d="m0 0h15l5 3 2 3 1 6-1 18-3 6-5 3h-14l-1-2-1-27 1-9z" fill="#FBEE13"/>
<path transform="translate(257,265)" d="m0 0 6 3v3l-4 1 6 3 3 5v26l-2 5-5 4-9-1-4-5-1-2v-26l3-5 3-4 1-5z" fill="#FBEE13"/>
<path transform="translate(107,274)" d="m0 0 9 1 4 6v22l-3 10-1 2h-8l-7-3-3-5-1-3v-21l2-5 4-3z" fill="#FBEE13"/>
<path transform="translate(488,477)" d="m0 0 5 1 11 7 10 6 25 9 9 3 1 4 1 9-3 1v2l-5 1-5-5-4-5-9-3-14-12-10-7-5-2-6 1-5 3-7 6-9 7-6 1-1-4 15-12 7-8z" fill="#BE9867"/>
<path transform="translate(346,273)" d="m0 0 5 1 1 1v23l-1 14-1 1h-8l-1-1v-14l-4-1v15l-1 1h-8l-1-1v-15l1-22 1-1h8l1 1v12l3-1v-10z" fill="#FBEE13"/>
<path transform="translate(142,273)" d="m0 0 5 1 1 2v19l-2 11-3 5-3 2h-11l-5-6-1-4v-28l1-1h8l1 1v30h3l1-30z" fill="#FBEE13"/>
<path transform="translate(493,499)" d="m0 0h4l6 7-1 2-5-5-4-1-2 5-8 9h-2l-2 4-12 12-4 2h-7l-12-4-7-2-4 6-7 6-10 5-5 1h-19l-12-3-6-3-5 1-8 8-14 7-7 2h-21l-12 6-2-1 6-4 3-3 6-3h7l2 1h9l13-4 8-4 7-8 6-16h2l-1 13 4 3 15 4h19l11-4 8-7 3-9 11 3 10 4 9 1 4-2 2-4 8-8 7-8z" fill="#F5FBFC"/>
<path transform="translate(459,265)" d="m0 0 6 1 2 5-8 1 8 3 4 17 2 20-2 1h-6l-1-5-6 1-2 4h-7l-1-4 3-16 6-27z" fill="#FBEE13"/>
<path transform="translate(160,265)" d="m0 0 6 1 1 5h-6v2h6l2 5 3 18 1 16-6 1-3-3v-2h-6l-2 5h-6l-1-4 3-17 4-17 1-4 1-5z" fill="#F2E916"/>
<path transform="translate(364,265)" d="m0 0h6l1 1v5l-6 1 3 1 4 1 4 19 2 18-1 2h-7l-1-5h-5l-2 5h-7l-1-3 3-24 3-11 2-8z" fill="#FBEE13"/>
<path transform="translate(649,274)" d="m0 0h11l3 8 2 11 1 11v9h-8l-2-5-5-1-2 6h-6l-1-4 3-22 3-12z" fill="#FBEE13"/>
<path transform="translate(441,470)" d="m0 0 3 1-4 4-10 1 4 2 9 1h10l2-7 2 1 1 17 1 7 4-1 3-1-2 4-3 1 2 5 2 2-1 1h-5l-5-7-1-7h-13l-13-2-5-2-1-10h-8v-2l7-3 4-1 11-2z" fill="#F8FBF5"/>
<path transform="translate(567,265)" d="m0 0 5 2-1 5 5 2 1 1v6l-1 1h-10v6h7l2 1v8l-1 1-8 1 1 5h8l2 3-1 6-3 1h-13l-3-1-1-3 1-35 5-2 1-5z" fill="#F8EC14"/>
<path transform="translate(392,361)" d="m0 0h11l12 2 15 1 8 3 11 2 19 7 11 6 11 7 16 12v2l4 2 9 9 7 8 5 5 6 10 5 9 3 8-1 3-12-21-9-12-9-10-10-10-15-11-20-12-16-6-15-5-15-3-9-1h-26l-22 3-16 5-18 6v-2l9-4 12-4 12-3 7-3 11-1z" fill="#FDFCFC"/>
<path transform="translate(395,805)" d="m0 0h8l10 4 8 7 2 3v4l-13 2h-18l-16-2 2-5 6-7 6-4z" fill="#FBEE13"/>
<path transform="translate(375,788)" d="m0 0 2 1-2 3 8-3h6l-4 6-3 5 6-1-4 2v2h-2l-1 4-8 9-3 5h-8l-10-4-1-3 8-14 4-4 8-4h2z" fill="#FBEE13"/>
<path transform="translate(692,654)" d="m0 0 2 1-9 11-1 4v2l-6 4-3 4-3 5-6 4-9 3h-4v2l-17 5-15 8-12 9-5 4-3-1 3-9 5-2v-2h4v-2h2l1-4 6-3 1-2 22-5 14-6 13-10 4-2 2-4 7-6 1-2h2l2-4z" fill="#077F64"/>
<path transform="translate(325,526)" d="m0 0 2 1v9l-4 5-7 3-7 2-6 9-12 13-13 10-5 2h-12l1-2 7-3 10-9 9-10 7-9 6-5 16-4 5-2 2-9z" fill="#E2FAFD"/>
<path transform="translate(306,550)" d="m0 0h3l2 5-1 2 2 1-9 5-10 8-8 7-6 9h-2v3h-2l-1 5-3 2h-9l-7-4v-5l-2-1-1-6 9-2h12l8-4 13-11 9-10z" fill="#BC976D"/>
<path transform="translate(529,758)" d="m0 0 2 4 2 11 4-2 3-4v2l2 1v4l-3 2-1 3 2 1-2 1 5 3 5 1v1l-17 3-17 6-4-2-1-3 2-6 2-3 1-6h3l3-6 8-2 2 1z" fill="#128756"/>
<path transform="translate(182,788)" d="m0 0h6l4 2 1 2 12 2 3 3 10 1 9 2 21 6 9 2v2h17l4 2 5-1 6 3-1 5-10-1-24-5-14-2-18-5-1-2-16-4-18-7-8-3z" fill="#078262"/>
<path transform="translate(403,513)" d="m0 0 5 3 1 9 5 6 1 3h2l-1-5h2l1 5v3l3 2-11 4h-19l-15-4-4-4 17 3 3-1-2-4 2-2 9 4h5v-2l-10-2-4-3 1-4 4-5 3-5z" fill="#D8B45E"/>
<path transform="translate(415,481)" d="m0 0h5l1 5v7l-6 17-2 2-4-1-5-5-1 3-2-1v-6l1-3-8-6-1-4 11-5z" fill="#12895B"/>
<path transform="translate(705,564)" d="m0 0h1l-1 7-6 10-4 8v4l1 5 4-1v3l-8 3-10 4-12 8-15 14-7 10-4 8-3-1v-6h-2v-2l4-2 3-9 2-1 1 2 2-5 8-7 14-8 12-11 10-14 8-16h2z" fill="#088261"/>
<path transform="translate(440,404)" d="m0 0h3l4 15v3h11l16-1 2 2-1 2 1 4h-26l-2 4-3 1-1-4-10 4-14 9-3 2h-3l-1 2-4 2h-3l-4-5 7-1 10-6h3v-2h3v-2l14-8h4l-3-10z" fill="#F6FBFC"/>
<path transform="translate(686,629)" d="m0 0h2l-2 13-12 9-15 6-12 7-10 8-8 8-7 8-3 1 1-6 3-7h2l2-4 2-2 1 1 1-3 3-1 5-5 3-1v-2l24-11 9-7 9-9z" fill="#086F63"/>
<path transform="translate(491,485)" d="m0 0 6 1 7 4 13 10 9 7 7 2-6 3-1 3h2v2l-4-2-11-10-15-11-5-1-8 5-18 11h-6l3-2-2-3 8-3 12-11z" fill="#E2FAFE"/>
<path transform="translate(579,274)" d="m0 0h20l1 1v5l-5 4v14l-1 14-1 1h-8l-2-29-5-5z" fill="#FCEE14"/>
<path transform="translate(383,273)" d="m0 0 8 1 2 2 2 14-2 10-1 12-2 1h-8l-1-1v-37z" fill="#FCEE14"/>
<path transform="translate(614,274)" d="m0 0h9l2 1 1 3v18h-2v16l-10 1-1-2v-36z" fill="#FBEE15"/>
<path transform="translate(489,473)" d="m0 0 9 3 10 7 16 8 18 6 8 2 3 2v10l1 5-4 4-7 1 1-2h3v-2l2-1-1-12-9-3-27-10-11-7-9-6-6 1-8 7-4 5-6 5-5 1-4 1-1-5 1 2 7-3 10-9 4-5 6-4z" fill="#F7FBFC"/>
<path transform="translate(499,273)" d="m0 0 4 2v37l-2 1h-9l-3-12 1-6 2-7 1-13z" fill="#FBEE13"/>
<path transform="translate(392,184)" d="m0 0h3l-1 5-10 15-11 14-3 3h-3l-1 3-2-1 4-14 7-19z" fill="#D2A573"/>
<path transform="translate(631,274)" d="m0 0h8l2 2-1 31-2 6h-8l-2-1-1-15 2-9 1-13z" fill="#FBEE13"/>
<path transform="translate(299,274)" d="m0 0h8l3 1 1 2v15l-2 5-1 15-1 1h-8l-1-9v-29z" fill="#FBEE17"/>
<path transform="translate(129,677)" d="m0 0 5 1 8 6 14 5 19 4v2l9 2 2 4 5 5 1 4h-7l-14-9-12-5-16-5-10-1-1-7 1-2z" fill="#078366"/>
<path transform="translate(316,274)" d="m0 0h8l1 3-1 35-1 1h-8l-2-1-1-3-1-13 2-8 1-12z" fill="#FBEE13"/>
<path transform="translate(350,158)" d="m0 0h29l6 3 9 9 1 6-6-1-9-3-12-3-14-5-5-3-3-2z" fill="#D2A573"/>
<path transform="translate(399,274)" d="m0 0h8l1 1v37l-3 1h-8l-1-1-1-15 3-12v-10z" fill="#FBEE14"/>
<path transform="translate(103,455)" d="m0 0 4 2 7 11 4 5 16 14 2 4 5 4 2-4v-8l3-2 1-3 2 1v8l-3 11h-2l-2 13-5-1-5-14-9-13-9-10-4-3v-2l-4-2-4-4v-2l-4-2h4z" fill="#088261"/>
<path transform="translate(182,469)" d="m0 0 2 4h5l1 3-13 10-4 4h-2l-2 4-7 9-6 10-6 16-1 6h-2l-1 6-3-1 1-10 1-5-1-3h2v-8l3-6 14-12 9-10 6-10 2-5h2z" fill="#098060"/>
<path transform="translate(695,542)" d="m0 0 4 5 6 2-2 1-1 3-12 7-9 7-7 8h-2l-2 4-7 10-5 11-4 10-3-1 1-5 1-4-1-2 3-7h1l2-8 5-5 10-8 8-7 10-15 2-5z" fill="#096E60"/>
<path transform="translate(406,124)" d="m0 0 2 3 8 25-1 7-9 13-3 1-1-9 1-34h2z" fill="#D2A573"/>
<path transform="translate(519,511)" d="m0 0 5 3 5 4 4 5 6 4 7 8 2 4v5l-8 4-4-1-2-7-5-4-3-10-11-12z" fill="#B59968"/>
<path transform="translate(404,187)" d="m0 0 4 4 8 11 1 3h2l9 14 1 8-9-5-13-10-4-5v-11l-1-5z" fill="#D3A672"/>
<path transform="translate(395,800)" d="m0 0 13 1 9 4 7 5 6 9-1 4-2-4-4-1-1-3-4-1-9-6-6-2h-8l-8 4-7 6-3 5h-2v2l-7 1-4-2h6l2-6 9-10 9-5z" fill="#087163"/>
<path transform="translate(382,405)" d="m0 0 1 3h6l-4 8h6l3 5-1 5h-3v2l-7-1-19-7-6 1-16 7-7 1-1-3h3v-2l13-5 10-4h8l10 3h3z" fill="#F8FBFB"/>
<path transform="translate(628,491)" d="m0 0 3 1 5 5 7 6 8 8 5-1 1-3h4l1-2-1 13-3 9h-2l-1 10h-2v-2h-2v-4h-2l-5-15-7-12-8-10z" fill="#118757"/>
<path transform="translate(120,640)" d="m0 0 5 1 9 6 11 5 11 4 3 3 5 3v2l2 1-1 2h2l1 4 6 1 3 6-1 5-5-3-7-8-11-9-16-9-11-4v-2l-7-1-1-4z" fill="#088465"/>
<path transform="translate(696,492)" d="m0 0 3 1-3 6v3l5 1-1 4-12 9-9 9-9 13-6 13-3 8-6-1 1-7 3-4 1 2 1-5h-4v-2l4-4 7-8 8-6 8-10 6-9z" fill="#096E60"/>
<path transform="translate(356,486)" d="m0 0h10l3 2 3 5v6l-4 1v-9l-5 3-20 11-4-1-3-5 1-5 5-4z" fill="#238C5D"/>
<path transform="translate(273,274)" d="m0 0h9v38l-1 1h-8l-1-20v-17z" fill="#FBEE13"/>
<path transform="translate(389,360)" d="m0 0h23l26 4 23 7 21 10 16 11 14 12 12 12 5 6-1 2-8-7-9-10-5-4-5-5-11-8-16-10-8-4-20-7-11-2-5-2-15-1-12-2h-11l-9 2h-11l2-2z" fill="#E2FAFE"/>
<path transform="translate(409,774)" d="m0 0 10 1 13 7 9 7 9 12v5l-3-3v-2l-5-2-7-7-16-8v-2l-8-2-21-1-1-3 4-1h13z" fill="#068C7F"/>
<path transform="translate(443,167)" d="m0 0 3 1v2l1 5-13 9-1-2-8 2h-10l-5-2-1-3 6-3 16-5z" fill="#D4A870"/>
<path transform="translate(103,497)" d="m0 0 3 4 5 6 3 5v2h2l7 8 10 9 4 3v4l4 2-2 1 2 3v3h2l1 12h-2l-1-2-2 1-4-9-4-10-8-12-9-10-4-3v-2l-5-2-3-4v-2l-4-2 4-2z" fill="#088261"/>
<path transform="translate(329,278)" d="m0 0 3 3 1 5 1 3 7 2v2h3l-1-9 2-2 4 4 2-1v12l-2 13-2-1-2-5h-2v-8h-7v2l-2 1-1 4-2 1-1 7h-2v-28z" fill="#F2F20D"/>
<path transform="translate(683,415)" d="m0 0h2v3l10 1v-2l5-1-1 3-14 11-7 8-7 11-7 16-1 5h-2v2l-2-1-1-5-2-5 7-8 10-13 7-14z" fill="#087E62"/>
<path transform="translate(399,98)" d="m0 0 4 1 1 5-2 3-3 1-2 6h-5v2l-10 7-6 5-5 3-10 4-7 2-3 1 2-4 18-10 11-9 9-7z" fill="#077F63"/>
<path transform="translate(375,788)" d="m0 0 2 1-2 3 8-3h6l-4 6-3 5 6-1-4 2v2h-2v3l-4-1v2h-2v2h-2l-1-3h-8l-2-1v-3l-4 3-1-3 5-6 8-4h2z" fill="#F2F10D"/>
<path transform="translate(365,290)" d="m0 0 3 2 1 6 4 1 1 2 1-8h1l2 18-1 2h-7l-1-5h-5l-2 5h-7l-1-3 2-17 4 4 3-1v-4h2z" fill="#ECE719"/>
<path transform="translate(315,525)" d="m0 0 2 3-1 5-6 3-13 4-7 6-12 16-16 12-1 5-5 2h-5l-2-5 6 1 7-9 14-10 7-8 7-11 8-5 15-4z" fill="#F2FBFC"/>
<path transform="translate(189,549)" d="m0 0 7 6-3 5-12 11-8 11-6 11h-2l-1 5-6-1h-5l2-1 2-4 5-6 7-6h2l2-4 9-15 3-7 2-1z" fill="#0A715F"/>
<path transform="translate(183,513)" d="m0 0 3 1v2l5 2-2 4-12 9-8 9-9 14-2 4h-2v-2l-7-1 6-8 7-6h2l2-4 10-13 5-10z" fill="#0C795E"/>
<path transform="translate(698,448)" d="m0 0 1 2-2 6v3h4l-1 4-13 10-4 2-1 3-3 3-1 2h-2l-2 4-6 10-2 5-3 1-3-9 7-8 11-9 10-11 9-17z" fill="#096F60"/>
<path transform="translate(348,486)" d="m0 0 4 2-12 4-3 4 1 5 2 3 5-1 12-7 6-3 2-2h3v9l5-2 1 3h-2v2l-5 1-3-2-1-4-9 3-11 6-5 2-3-3-1-3-6-1-4 4-2 7-5-1 3-1-1-4-1-3-5-2v-1l10 1 11-8 4-5z" fill="#EFFAF7"/>
<path transform="translate(163,293)" d="m0 0h1l1 5 4 2 1 1 1-5h1l1 16-6 1-3-3v-2h-6l-2 5h-6l-1-4 2-9 5-2v-2l4-2v3h2z" fill="#FCEE14"/>
<path transform="translate(459,265)" d="m0 0 6 1 2 5-8 1 8 3 3 12v5l-5-2-1 7-5 1-1-7 1-4h-1l-1-7h-2l-1 6-1-4 3-9 1-7z" fill="#FCEE14"/>
<path transform="translate(394,449)" d="m0 0 4 1 6 4v5l-3-1v-2l-4 1-4 7-1 8h22v-2h6l2 1v-2l10-2 3-2h5l2 3-16 4-16 2-10 1-1-1-6 1-2 3-1-3-5-3-3-4v-2l4 1 3-5 4-12z" fill="#F5FAEA"/>
<path transform="translate(360,474)" d="m0 0 6 2 7 4 2 3 6 1v3l-7 3-1 2 5 1 3-1 6 2-1 5-4-2v2l-7-2v3h-2l-3-8-2-4-10-2-1-1v-6z" fill="#E2FAFD"/>
<path transform="translate(628,694)" d="m0 0 3 1h-2l1 2 1-1 12-2h5l-3 2-13 5-11 6-12 9-5 4-3-1 3-9 5-2v-2h4v-2h2l1-4 6-3 1-2z" fill="#088263"/>
<path transform="translate(197,587)" d="m0 0 4 1 2 1-2 4-4 7-7 9-8 15h-2l-2 5-9 1 1-4 11-11 7-12 4-9h2l2-6z" fill="#0B745E"/>
<path transform="translate(211,625)" d="m0 0h4l-1 5-7 10-5 10-4 12h-2l-1 8-3 1-5 1-2-1 2-5 10-14 5-14 1-5h2l1-6h5z" fill="#097E60"/>
<path transform="translate(364,784)" d="m0 0 2 1 3 1 4-1-2 5-8 7-6 8-5 9h-2l-1 3h-4l2-10 6-10 8-10z" fill="#086F62"/>
<path transform="translate(388,430)" d="m0 0 2 1v4l5 2 4 6 7 4-1 8-12-7v-6l-5 3-6 8-5 3v6l-6-2-1-4 5-1 2-4 7-7h2v-7l2-4z" fill="#078F88"/>
<path transform="translate(616,517)" d="m0 0 4 4 7 11 7 8 8 7 3 3 3 5 2 2v3l-6-1-6-9v-2l-4-1-8-10-8-7v-2l-5-2-3-3v-2h2l1-3z" fill="#098161"/>
<path transform="translate(670,610)" d="m0 0 2 1-3 5-13 12-6 8-6 11-3-1v-6h-2v-2l4-2 3-9 2-1 1 2 2-5 8-7z" fill="#086D61"/>
<path transform="translate(649,274)" d="m0 0h11l3 8 2 11v9h-1l-2-10-2-3-4-4v13l-4-1-3-7-1-3v-4l-1-4z" fill="#E5E41A"/>
<path transform="translate(605,556)" d="m0 0 5 1 4-1 8 16 11 12 4 4 2 6-2 2-1 4h-2l-5-12-9-13-11-11-2-1-3-6z" fill="#098160"/>
<path transform="translate(356,454)" d="m0 0h1l2 10 6 7 10 8 6 2v2l-6 1-2-4-5-2-6-3h-2l-2 4v7l-2 1h-6v-2h2l1-9 1-1v-8l-1-3v-7z" fill="#F6FBF5"/>
<path transform="translate(403,513)" d="m0 0 5 3 1 9 5 6-1 4-6-1-12-4-2-2 1-4 4-5 3-5z" fill="#158557"/>
<path transform="translate(392,441)" d="m0 0 2 1v8l-5 15-4 3-1-3-5-1-3-4 1-5 5-3 8-10z" fill="#138857"/>
<path transform="translate(109,593)" d="m0 0 6 4 2 4 4 2 13 8 12 7 3 3-1 6-7-3-8-8-15-10-7-3-1-2-6-2 3-4h2z" fill="#087F62"/>
<path transform="translate(314,512)" d="m0 0h7l1 3 1 8-2-1-7 2v-7l-13 4-21 9-13 6-3-1 4-1 2-4 30-13z" fill="#F7FBFC"/>
<path transform="translate(311,415)" d="m0 0h7l8 6 5 1 1-2v5h5l-3 1-1 2-11-6-7-4-4 1-20 12-11 7h-2v2l7 1v1l-10 1-2-4 5-4 13-9 15-9z" fill="#E6FAFD"/>
<path transform="translate(629,402)" d="m0 0h2v3h2l5 15 7 13 5 8h3l2-12 2-1v9l-2 17-1 2-3-1-5-13-8-16-7-12-5-6 1-4h2z" fill="#0E855E"/>
<path transform="translate(603,591)" d="m0 0 2 2 2 5 2 1 7 14 9 11v4l-2 3-1 5h-2l-4-13-8-14-8-10 1-4h2z" fill="#087E61"/>
<path transform="translate(399,473)" d="m0 0 1 2 2 1h-2l1 4 12-1 8 1 2 11-3 7-1-2 1-3v-12l-19 5-7 3-4-1-2-4 1-5 3-1 1-4z" fill="#F9FBFC"/>
<path transform="translate(280,413)" d="m0 0v3l-4 5h-2l-2 5-3 5-5 7-6 11-5 8-3 7-5 11-1 9-4 8-1-4 6-21 10-21 7-11 8-12z" fill="#E2FAFE"/>
<path transform="translate(632,278)" d="m0 0 4 2 1 2v7h2v16h-3l-4-4-2-1-1 7-2-3v-7l2-9h2v-9z" fill="#F2F10D"/>
<path transform="translate(316,278)" d="m0 0 4 1 1 7h2v17l-1 3h-2l-3-5-2-4-1 12h-2l-1-13 2-8h2z" fill="#F2F110"/>
<path transform="translate(193,728)" d="m0 0 11 1 7 4 7 2 3 7-1 2-5-1-19-8-3-1v-2l-6-1v-1z" fill="#078363"/>
<path transform="translate(198,406)" d="m0 0 1 2-7 16-1 6h-2l-2 4-10 9h-2l-1 3-6 5-5 6-2-2h2l-1-2-4 1 5-5 11-8 9-10 9-15 4-9z" fill="#097060"/>
<path transform="translate(142,273)" d="m0 0 5 1 1 2v19l-6-2-1-2-4 2v-18z" fill="#FCEE14"/>
<path transform="translate(102,547)" d="m0 0 5 1 4 4 6 8 9 9 10 8 6 7-1 2-4-2h-3l-7-9-9-10-6-5-11-7v-2l-2-1z" fill="#098060"/>
<path transform="translate(591,625)" d="m0 0 2 1 3 9 5 16 6 10 2 6-3 3-1-3-3-1-5-14-6-12-3-5z" fill="#108458"/>
<path transform="translate(287,549)" d="m0 0 4 2-2 5-11 12-9 8-7 3h-1v-5l18-14z" fill="#C5A165"/>
<path transform="translate(108,419)" d="m0 0 3 1 4 3 1-4v2h2l5 13 8 11 5 6 4 7v3l-4-2v2h-2l-8-17-10-14-8-7z" fill="#108158"/>
<path transform="translate(558,282)" d="m0 0 1 4 5 1 1 2v9l-3 2v3h-3l-1 7h2l1-6 8 2v7h-12l-1-3 1-23z" fill="#F2F10D"/>
<path transform="translate(186,278)" d="m0 0 2 2-1 5-1 2v20h-2l-1 3v-3l-5-2v-23l6 1z" fill="#F2F20D"/>
<path transform="translate(114,278)" d="m0 0h2l1 3v4l2-1v24h-2l-1 2-4-3-1-2v-17l1-7z" fill="#F2F10D"/>
<path transform="translate(151,506)" d="m0 0 2 1h1l3 4-7 18-1 6h-2l-1 6-3-1 1-10 1-5-1-3h2v-8l3-6z" fill="#06846A"/>
<path transform="translate(390,279)" d="m0 0 3 3v5l-2-2-1 6v7h1l-1 9-7-2-1-2v-21l8 1z" fill="#F2F20D"/>
<path transform="translate(297,441)" d="m0 0 19 4 16 2h13l-4 2-1 1h-14l-4-1-1 2-1-2-15-2-17-1-9-3v-1z" fill="#F8FBFC"/>
<path transform="translate(179,273)" d="m0 0h6l3 3 1 6-2-2-3 4-5-1v22l5 2 3-1 1 3-1 3-2 1h-7l-1-1v-37z" fill="#FCEE14"/>
<path transform="translate(477,282)" d="m0 0 2 4h2l3 8h2v15l-4 1-1-3h-2l-1 5h-1z" fill="#F2F20D"/>
<path transform="translate(588,796)" d="m0 0 6 3-2 1v2l-24 7h-10v-2l5-1 1-2 19-7z" fill="#077F62"/>
<path transform="translate(438,468)" d="m0 0h3v3l-14 4h-6l-5 3-11 3-5-1v-4l16-4 13-2z" fill="#228858"/>
<path transform="translate(435,427)" d="m0 0 2 1v2l4 1-12 6-12 8h-3l-1 2-4 2h-3l-4-5 7-1 10-6h3v-2h3v-2z" fill="#F3FBFB"/>
<path transform="translate(314,388)" d="m0 0 2 1-14 10h-2v2l-11 9-3 4h-2l-2 4-8 10h-2l-2 5-6 9-4 4 2-5 5-9 3-3 4-8h2l2-4 10-10 12-10z" fill="#FDFCFC"/>
<path transform="translate(306,550)" d="m0 0h3l2 5-1 2 2 1-9 5-10 8-5 5h-2v-5l12-11z" fill="#CFA465"/>
<path transform="translate(302,495)" d="m0 0 6 1 8 4v1l-7-1-9-1-10 4-7 3-16 6-9 3-3 2-4-1-4-4 9 1 28-11 14-6z" fill="#EFFAF4"/>
<path transform="translate(743,133)" d="m0 0h8l-1 6-3 1-2 5-4 1-6-2 1-4-1-1h-8l2-2h3v-2z" fill="#F3F10D"/>
<path transform="translate(357,547)" d="m0 0m-1 1 1 3-13 6-4 1h-21l-12 6-2-1 6-4 3-3 6-3h7l2 1h9l13-4z" fill="#F5FBFC"/>
<path transform="translate(182,788)" d="m0 0h6l4 2 1 2 12 2 3 3 10 1 4 2 1 4-7-1-17-5-12-5-8-3z" fill="#068265"/>
<path transform="translate(129,677)" d="m0 0 5 1 8 6 14 5v3h-11l-2-1-10-1-1-7 1-2z" fill="#088363"/>
<path transform="translate(609,426)" d="m0 0 4 2 10 13 7 6 7 4v2l5 2v3l3 1-5 1-2-2-4-2-7-8-3-2v-2l-5-2-6-5-5-6z" fill="#108658"/>
<path transform="translate(661,505)" d="m0 0 1 4-2 13-2 5h-2l-1 10h-2v-2h-2l-1-9 1-2h2l2-7 2-10h4z" fill="#078263"/>
<path transform="translate(495,494)" d="m0 0h5l16 13 3 3v2l-6 1-14-12-5-2 3-1z" fill="#DC8942"/>
<path transform="translate(120,640)" d="m0 0 5 1 9 6 7 3-1 2 8 4 1 4-15-7-8-3v-2l-7-1-1-4z" fill="#0A8465"/>
<path transform="translate(651,488)" d="m0 0 1 3 5-1v3l4 1 3 8 1 2-3 9-1-4v-2h-4l-1 4-1-4-4-14z" fill="#128857"/>
<path transform="translate(397,456)" d="m0 0h4l3 4v7l-4 5h-8v-8z" fill="#0296CA"/>
<path transform="translate(529,424)" d="m0 0 5 5 7 10 8 14 6 15-1 2-1-3-5-2-3-6-3-12-3-4-4-8-3-4-3-5z" fill="#E3FAFD"/>
<path transform="translate(183,513)" d="m0 0 3 1v2l5 2-2 4-12 9-3 3-3-1 3-6 6-10 1-3z" fill="#096F60"/>
<path transform="translate(235,283)" d="m0 0h6l1 2v13l-1 10h-2l-2-4-2 1z" fill="#F2F10D"/>
<path transform="translate(162,452)" d="m0 0 1 3-6 11-3 6-5 5 1-8-1-7 3-5 4-3z" fill="#098261"/>
<path transform="translate(653,715)" d="m0 0 4 1-5 4-1 6h-6l-5 3-7 1-2-3 1-2 16-7z" fill="#088362"/>
<path transform="translate(673,481)" d="m0 0h4l-2 5-7 11-2 5-3 1-3-9 7-8z" fill="#096F61"/>
<path transform="translate(636,664)" d="m0 0 1 4-2 1v2l2 1-8 8-7 8-3 1 1-6 3-7h2l2-4 2-2 1 1 1-3 3-1z" fill="#077F62"/>
<path transform="translate(430,789)" d="m0 0 5 2 7 7 5 3 2 4 2-2 4 7 2 7h-6l-1-3h-2l-7-13-7-8z" fill="#097161"/>
<path transform="translate(526,750)" d="m0 0 3 3 1 15-10 1-2 6-2 1 1-6 6-13z" fill="#087F62"/>
<path transform="translate(427,398)" d="m0 0 2 1v3l-3 9-2 4-5 5-1 2h-2l1-9 3-9z" fill="#D3A674"/>
<path transform="translate(186,393)" d="m0 0h2l-1 3-9 6-10 10-1 2h-2l1-9 1-4h2l1-2 7-2 5-2z" fill="#098261"/>
<path transform="translate(664,537)" d="m0 0 3 1 1 4-5 13-2 4-6-1 1-7 3-4 1 2 1-5h-4v-2l4-4z" fill="#098361"/>
<path transform="translate(283,781)" d="m0 0 2 3 1-2 5 8 4 1 2 4-1 1-7-1-2-1v-2l-8-2-1-2-5-1 4-2z" fill="#068263"/>
<path transform="translate(437,283)" d="m0 0 3 2v2h2v4h2l1-2v14l-2 3-2-1v-2h-3l-1-7z" fill="#F2F20D"/>
<path transform="translate(557,724)" d="m0 0 1 2h2l2 9v6h-3l-4 3-3-1 1-10 2-7h2z" fill="#088062"/>
<path transform="translate(475,426)" d="m0 0h3l-1 4-7 3h-15l-6-2 1-3h24l2 1z" fill="#A2926D"/>
<path transform="translate(290,565)" d="m0 0 3 1-13 11-7 3h-12l1-2 7-3 3-2 6-1 9-5z" fill="#FBFBFC"/>
<path transform="translate(686,629)" d="m0 0h2l-2 13-8 6-2 1-1-4h-3l6-7z" fill="#078264"/>
<path transform="translate(103,497)" d="m0 0 3 4 5 6 3 5v2h2l7 8 1 2-4-1-8-8-2-1v-2l-5-2-3-4v-2l-4-2 4-2z" fill="#098162"/>
<path transform="translate(103,455)" d="m0 0 4 2 7 11 4 5 8 7-2 1-5-3-7-7-2-1v-2l-4-2-4-4v-2l-4-2h4z" fill="#097F61"/>
<path transform="translate(656,527)" d="m0 0 1 4v8h2l1-2 2 1-3 4h-2v2l4-1 1 4-2 3h-2l-3 4-5-17v-6l1 4h2v2h2v-7z" fill="#128756"/>
<path transform="translate(372,522)" d="m0 0h2l-1 13 5 5h-8l-9 9-4 1 2-4 7-8z" fill="#F5FBFA"/>
<path transform="translate(684,514)" d="m0 0 2 4-6 5-6 9-5 8h-2l-1-2h-4l2-4 10-9 5-5z" fill="#097160"/>
<path transform="translate(365,491)" d="m0 0h3v9l5-2 1 3h-2v2l-5 1-3-2-1-4-9 3-9 5h-2v-2l14-8 6-3z" fill="#E6F9E3"/>
<path transform="translate(198,653)" d="m0 0h1l-1 9h-2l-1 8-3 1-5 1-2-1 2-5 8-11z" fill="#098161"/>
<path transform="translate(628,491)" d="m0 0 3 1 5 5 7 6 5 5 2 7-4 1-3-5-5-5-8-11z" fill="#078C7D"/>
<path transform="translate(149,575)" d="m0 0h1l-1 10h-3l1 4-1 6h2v5l-3 3-3-5-2-3v-3l3-3 1-10 3-3 1 1z" fill="#088363"/>
<path transform="translate(377,776)" d="m0 0h7v2l3 1-14 7-5 1h-3l2-5z" fill="#068B7D"/>
<path transform="translate(424,480)" d="m0 0 11 2 18 3v3h-10l-11-1-8-3z" fill="#509259"/>
<path transform="translate(250,758)" d="m0 0 3 2 2 6 2 1-1-3h2l2 6-1 2-5-1-8-3v-2l-2-1 3-6z" fill="#078263"/>
<path transform="translate(657,585)" d="m0 0 3 1 2 5-5 12-3 7-3-1 1-5 1-4-1-2 3-7h1z" fill="#088366"/>
<path transform="translate(259,446)" d="m0 0 1 2-7 16-7 20h-2v-9l5-11 5-10z" fill="#FDFCFC"/>
<path transform="translate(387,440)" d="m0 0h3l-1 4-7 9-5 3v6l-6-2-1-4 5-1 2-4 7-7h2z" fill="#E9FAFD"/>
<path transform="translate(401,511)" d="m0 0 1 2-5 9-3 3 1 4 12 4v2l-5 1-10-5-2-2 1-7 4-2v-2h3l-1-5z" fill="#F1FAF8"/>
<path transform="translate(314,512)" d="m0 0h7l1 3 1 8-2-1-7 2v-7l-12 3 2-3 9-4z" fill="#F3FBFC"/>
<path transform="translate(650,625)" d="m0 0 2 1-2 5v3l-2 5-4 8-3-1v-6h-2v-2l4-2 3-9 2-1 1 2z" fill="#078262"/>
<path transform="translate(164,410)" d="m0 0 2 4-17 34h-2l-1 5h-1v-6l4-8 6-9 8-16z" fill="#128756"/>
<path transform="translate(583,692)" d="m0 0h2l4 7 1 5-3 6-5-1v-16z" fill="#078264"/>
<path transform="translate(435,465)" d="m0 0h5l2 3-16 4-16 2-10 1v-3h14v-2h6l2 1v-2l10-2z" fill="#EAF7A8"/>
<path transform="translate(256,282)" d="m0 0h4v23l-4 1-1-23z" fill="#138856"/>
<path transform="translate(131,612)" d="m0 0 10 3 5 3 3 3-1 6-7-3-9-9z" fill="#088362"/>
<path transform="translate(432,282)" d="m0 0h4v23l-4 1-1-23z" fill="#118558"/>
<path transform="translate(669,573)" d="m0 0h4l-2 5-8 11-3-1v-2h-2l1-5z" fill="#096F61"/>
<path transform="translate(389,408)" d="m0 0h14l1 4-2 3h-2v-3l-9 3-6 1 2-6z" fill="#0294BB"/>
<path transform="translate(138,289)" d="m0 0 2 2 2-1v3l5 2v8l-1 3-3 1-4-4v-9z" fill="#F2F10D"/>
<path transform="translate(616,617)" d="m0 0 4 1 6 7-2 5-2 6h-2l-4-13-1-4z" fill="#0A8260"/>
<path transform="translate(164,585)" d="m0 0 3 1 1 5-1 2h-2l-1 5-6-1h-5l2-1 2-4 5-6z" fill="#068164"/>
<path transform="translate(616,472)" d="m0 0 2 1v2h2l8 14v2l-4-2-10-8-2-4 4-1v2h2z" fill="#0B825F"/>
<path transform="translate(188,282)" d="m0 0h2l2 14-1 4-2-2-2 8h-1l-1-19z" fill="#F7EF39"/>
<path transform="translate(655,283)" d="m0 0 4 3 2 3 3 5v9l-7-4-2-10z" fill="#F2F20D"/>
<path transform="translate(708,700)" d="m0 0h1v6l-8 16-5 8-3 1 1-5 7-11z" fill="#098361"/>
<path transform="translate(634,543)" d="m0 0 3 1 4 2 4 4 3 5 2 2v3l-6-1-6-9v-2l-4-1z" fill="#068D81"/>
<path transform="translate(350,419)" d="m0 0h6l-1 3-13 6-7 1-1-3h3v-2z" fill="#F5FBF4"/>
<path transform="translate(683,415)" d="m0 0h2v3l10 1v-2l5-1-1 3-12 9-1-2 1-2h-2v-2l-3 1z" fill="#088361"/>
<path transform="translate(149,277)" d="m0 0 1 4h3l-2 19-2 7-3 1 1-13h2z" fill="#077062"/>
<path transform="translate(156,282)" d="m0 0h2l1 4v9l-4 5-1-1-2 2v-9l2-7z" fill="#F3F10D"/>
<path transform="translate(496,286)" d="m0 0 2 3 1 10v3h2v2l-5 1-4-2 1-13z" fill="#F2F20D"/>
<path transform="translate(586,276)" d="m0 0 6 5-2 10h-3l-1 7h-1l-1-15-1-3-2-1z" fill="#F2F20D"/>
<path transform="translate(107,282)" d="m0 0 3 1 1 19-1 5-4-2v-22z" fill="#138856"/>
<path transform="translate(122,524)" d="m0 0 4 1 11 9 1 6-5-1-2-5-4-1-5-7z" fill="#098C77"/>
<path transform="translate(124,281)" d="m0 0h3l3 15-1 4h-3l-2 4z" fill="#F2F20D"/>
<path transform="translate(381,303)" d="m0 0h2v2l7 2 1-4h1v9l-2 1h-8l-1-1z" fill="#FCEE14"/>
<path transform="translate(544,284)" d="m0 0 4 2 1 3v12l-2-1-4 1v-14z" fill="#F2F20D"/>
<path transform="translate(259,579)" d="m0 0 2 1-5 6 3 1 2 5 4 2-1 3-6-2-3-3v-4l-2-1-1-6z" fill="#D4AC68"/>
<path transform="translate(360,474)" d="m0 0 6 2 7 4-1 4-13-2-1-4z" fill="#0E8963"/>
<path transform="translate(472,421)" d="m0 0 4 2-1 2 1 4h-26-3l1-2 21-1-1-2-10-1v-1z" fill="#E3FAFD"/>
<path transform="translate(353,276)" d="m0 0 1 3 3 1-1 12-2 14-2 3v-14z" fill="#066964"/>
<path transform="translate(649,280)" d="m0 0 1 4-1 4 2 3-1 7-2 2v-2l-4 2 1-13 1-4h2z" fill="#F3F10E"/>
<path transform="translate(361,278)" d="m0 0h1l1 15v3h-2l-1 4-1-3-2 1v-12l1-3h2z" fill="#F2F10D"/>
<path transform="translate(180,616)" d="m0 0 1 4h2l-1 4h-2l-2 5-9 1 1-4z" fill="#088263"/>
<path transform="translate(569,802)" d="m0 0h9v4l-10 3h-10v-2l5-1 1-2z" fill="#0E7D5B"/>
<path transform="translate(513,778)" d="m0 0 1 4-3 3-1 7 2 4-7 1-1-2h-2l2-5z" fill="#0A765F"/>
<path transform="translate(573,304)" d="m0 0 3 1 1 6-1 2-3 1h-13l3-2 6 1-1-8z" fill="#FCEE14"/>
<path transform="translate(671,280)" d="m0 0 4 3v2h-2v7h2l2 10 1 2h-2l-1 2-4-2z" fill="#F2F20D"/>
<path transform="translate(591,625)" d="m0 0 2 1 3 9v10l-3-1-5-9z" fill="#088062"/>
<path transform="translate(371,489)" d="m0 0h2v3l5 1 3-1 6 2-1 5-4-2v2l-7-2v3h-2l-2-7z" fill="#F0F9DA"/>
<path transform="translate(406,510)" d="m0 0 5 3h1v7h-2v4l2 1 5 5v4l-4 1-1-5-4-5-2-12z" fill="#F8FBF0"/>
<path transform="translate(388,217)" d="m0 0 3 1-4 3-2 6-9 2-9 6v-3l14-10z" fill="#098361"/>
<path transform="translate(676,698)" d="m0 0 3 1-7 8-5 5-4 3-3-1-2 1v-3l14-10z" fill="#097F60"/>
<path transform="translate(668,388)" d="m0 0h2l-1 5-8 16h-2l1-14 6-2z" fill="#087E61"/>
<path transform="translate(312,282)" d="m0 0 2 1-1 10-1 5v12l-2 2-1-1-1-14 2-5z" fill="#0F805A"/>
<path transform="translate(285,551)" d="m0 0 1 3-3 7-7 7-4 3h-6l4-4 9-7z" fill="#D3AF62"/>
<path transform="translate(417,806)" d="m0 0 4 2 5 5 4 6-1 4-2-4-4-1-1-3-4-1-1-4z" fill="#078C7B"/>
<path transform="translate(176,439)" d="m0 0 2 3-3 1-1 3-6 5-5 6-2-2h2l-1-2-4 1 5-5 11-8z" fill="#0C775E"/>
<path transform="translate(609,426)" d="m0 0 4 2 10 13v2l-5-2-5-4-5-6z" fill="#0B775E"/>
<path transform="translate(411,803)" d="m0 0 4 1 3 3 1 5h-3l-9-5-12-2v-1z" fill="#097B68"/>
<path transform="translate(271,752)" d="m0 0h3l1 5h2v6h-2l-2 4h-2l-1-2v-9z" fill="#068264"/>
<path transform="translate(566,283)" d="m0 0h12l2 1v2h-2v9l-2-4-3-2-7-1z" fill="#078169"/>
<path transform="translate(79,162)" d="m0 0h5l-3 1 2 9-1 10-1 1-1 11h-1z" fill="#078063"/>
<path transform="translate(122,480)" d="m0 0 7 2 5 5 3 6-2 2-4-3v-2h-3l-6-8z" fill="#0A876E"/>
<path transform="translate(363,470)" d="m0 0 6 4 6 5 6 2v2l-6 1-2-4-5-2-8-4 1-3z" fill="#E7FAFD"/>
<path transform="translate(367,283)" d="m0 0 2 3v4h5l1 3v9l-2-1v-2h-5z" fill="#F2F20D"/>
<path transform="translate(668,757)" d="m0 0h3l-2 4-14 12-3 2-4-1 3-1v-2l16-12z" fill="#0A8360"/>
<path transform="translate(280,294)" d="m0 0h1v8l-3 6h-2l-2 4v-16l5 1z" fill="#F2F20D"/>
<path transform="translate(695,542)" d="m0 0 4 5 6 2-2 1-1 3-5 2v-2l-5-1 1-9z" fill="#078263"/>
<path transform="translate(598,730)" d="m0 0h23v1h-5v2l-8 2h-7l-1-2 1-2z" fill="#078364"/>
<path transform="translate(506,502)" d="m0 0 5 1 8 7v2l-6 1-7-9z" fill="#DF5B44"/>
<path transform="translate(391,283)" d="m0 0 4 4-2 13-2 3-2-4v-11z" fill="#FAEE1E"/>
<path transform="translate(117,601)" d="m0 0 4 2 13 8 4 3-6-1-1 2-10-7-5-4 2-1z" fill="#0D7F5C"/>
<path transform="translate(127,572)" d="m0 0 7 3 8 9-1 2-4-2h-3l-7-9z" fill="#098971"/>
<path transform="translate(530,494)" d="m0 0 5 1 15 4 3 2v10l1 5-2 3-2-1 1-4-1-2v-10l-3-2-10-2-7-3z" fill="#E2FAFE"/>
<path transform="translate(683,422)" d="m0 0h2v2h2l-2 6-6 7h-2v-5l4-9z" fill="#096E60"/>
<path transform="translate(629,402)" d="m0 0h2v3h2l2 7v5l-3-1-6-8 1-4h2z" fill="#088261"/>
<path transform="translate(642,276)" d="m0 0 4 1-1 11-2 12-2 2v-15z" fill="#066764"/>
<path transform="translate(556,495)" d="m0 0 2 4 1 7v40l-1 5h-1v-43l-1-1z" fill="#058E86"/>
<path transform="translate(164,284)" d="m0 0h1v5h3l2 2 1 11-5-3-2-1z" fill="#F2F20D"/>
<path transform="translate(403,419)" d="m0 0 4 2 1 5-3 4-8 1 2-4z" fill="#F2F20D"/>
<path transform="translate(455,280)" d="m0 0h2l3 4-1 7-3 7h-1v-6h-2l1-9z" fill="#F2F10D"/>
<path transform="translate(716,163)" d="m0 0h5l1 5h-2v7l-1-4-3-1v-4l-11 1v-2z" fill="#098060"/>
<path transform="translate(484,475)" d="m0 0 2 1-14 14-4 2-1 3-5 3-4-1 1-4v2l7-3 10-9 4-5z" fill="#E4FAFD"/>
<path transform="translate(150,627)" d="m0 0 2 2 3-2 1 4 1 6-2 4-5-5z" fill="#078265"/>
<path transform="translate(176,571)" d="m0 0 2 4-9 14-4-4 4-5h2l2-4z" fill="#0D7B5B"/>
<path transform="translate(189,549)" d="m0 0 7 6-2 4h-3l-4 1-2-3v-3l2-1z" fill="#078263"/>
<path transform="translate(346,760)" d="m0 0 4 2 2 5-7 6-5-1 4-4 2-5z" fill="#0A8360"/>
<path transform="translate(662,491)" d="m0 0 5 1 2 1-3 9-3 1-3-9z" fill="#078466"/>
<path transform="translate(628,726)" d="m0 0 4 1 1 4-8 1h-9l2-4z" fill="#128859"/>
<path transform="translate(381,431)" d="m0 0h7l1 4-1 1h-10l-5 2-3-3 10-3z" fill="#E4FAF9"/>
<path transform="translate(700,608)" d="m0 0 3 1-5 10h-2l-2 5-2 4-1 3-2-2 1-5 9-13z" fill="#0B7A5E"/>
<path transform="translate(622,532)" d="m0 0h5l7 8 6 5-4 1v-2l-2-1-1 2-11-12z" fill="#0C795C"/>
<path transform="translate(274,506)" d="m0 0 2 1-1 2-10 4-9 3-5 1-4-5 9 1z" fill="#E9FAFD"/>
<path transform="translate(162,497)" d="m0 0 2 1-5 10-3 2-2-2-2 2v-3l5-6z" fill="#09715F"/>
<path transform="translate(664,537)" d="m0 0 3 1 1 4-2 4-4 1-1-3h-4v-2l4-4z" fill="#068367"/>
<path transform="translate(464,288)" d="m0 0 6 4v11l-4-3-2-1z" fill="#F2F20D"/>
<path transform="translate(601,656)" d="m0 0h3l4 6 1 5-3 3-1-3-3-1z" fill="#077D6C"/>
<path transform="translate(629,582)" d="m0 0 4 2 4 4 2 6-3 2-4-5-3-6z" fill="#068B7E"/>
<path transform="translate(183,513)" d="m0 0 3 1v2l5 2-2 4-6-1v2l-2-1-1-5 1-3z" fill="#078263"/>
<path transform="translate(312,417)" d="m0 0 5 1 8 5-1 2-7-3-9 1-3 1 1-3z" fill="#068E89"/>
<path transform="translate(364,265)" d="m0 0h6l1 1v5l-9 2-1-5z" fill="#FAED14"/>
<path transform="translate(325,526)" d="m0 0 2 1v9l-4 5-7 3-3-1 10-5 1-2h-2l2-9z" fill="#E2FAFE"/>
<path transform="translate(689,592)" d="m0 0 2 1-2 4-8 7-4 5-4 4h-2v-4l9-7z" fill="#0C775E"/>
<path transform="translate(441,470)" d="m0 0 3 1-4 4-10 2h-4l1-3z" fill="#E3F4CD"/>
<path transform="translate(389,463)" d="m0 0h2v10h-5l-4-5v-2l4 1z" fill="#F6FAE6"/>
<path transform="translate(367,436)" d="m0 0 6 1-2 4-5 4h-3l1-7z" fill="#F5FBFC"/>
<path transform="translate(382,405)" d="m0 0 1 3h6l-4 8 4 1-5 2-3-1z" fill="#DFF8FA"/>
<path transform="translate(168,402)" d="m0 0 6 1-1 4-6 7h-2l1-9h2z" fill="#096D60"/>
<path transform="translate(565,299)" d="m0 0h7l4 1-1 4-2 1h-6l-2-2z" fill="#097F61"/>
<path transform="translate(692,654)" d="m0 0 2 1-9 11-5 4-4 4-3-1 3-1 2-4 7-6 1-2h2l2-4z" fill="#0A765F"/>
<path transform="translate(197,587)" d="m0 0 4 1 2 1-4 8h-4l-1-5z" fill="#068164"/>
<path transform="translate(320,447)" d="m0 0h25l-4 2-1 1h-14l-4-1-1 2z" fill="#F7F9CB"/>
<path transform="translate(459,265)" d="m0 0 6 1 2 5-10 1-1-4z" fill="#FBEC15"/>
<path transform="translate(215,692)" d="m0 0h1l1 7-4 2-1-2v3h-2l-2 5h-2l2-6 4-7z" fill="#087D62"/>
<path transform="translate(282,525)" d="m0 0m-2 1 5 1-3 2-15 7-3-1 4-1 2-4z" fill="#F1FBFC"/>
<path transform="translate(221,799)" d="m0 0 6 1 3 2h-3v2l4 1 1 3-7-1-3-1z" fill="#0C8560"/>
<path transform="translate(157,690)" d="m0 0 10 1 3 2-10-1v3l5 1-4 1-12-4 4-2z" fill="#0D855C"/>
<path transform="translate(139,685)" d="m0 0 12 2 6 3-2 2h-6l-4-3-5-1z" fill="#088C7A"/>
<path transform="translate(687,597)" d="m0 0 2 4-1 3-9 5-3-1z" fill="#076A62"/>
<path transform="translate(408,479)" d="m0 0 13 1 2 11-3 7-1-2 1-3v-12l-9 2-4-1-2-2z" fill="#E3FAFD"/>
<path transform="translate(676,434)" d="m0 0 2 4-7 11-2 5-1-4-2 1 2-4 7-10z" fill="#108158"/>
<path transform="translate(394,276)" d="m0 0 2 1 2 10-1 7-2 3-1-1z" fill="#0D8864"/>
<path transform="translate(537,780)" d="m0 0 13 1v2l4 1-11 1-5-1z" fill="#088266"/>
<path transform="translate(120,640)" d="m0 0 5 1 3 4v2h-9l-1-4z" fill="#06856C"/>
<path transform="translate(298,564)" d="m0 0 2 1-12 11h-2v-5l8-6z" fill="#DDC04F"/>
<path transform="translate(313,501)" d="m0 0 8 1 4 2-3 9-5-1 3-1-1-4-1-3-5-2z" fill="#F1F8D4"/>
<path transform="translate(394,459)" d="m0 0v3l-2 10h8l-1 2-6 1-2 3-1-3-3-2h4v-10l-2-1 1-2z" fill="#E2FAFE"/>
<path transform="translate(132,450)" d="m0 0 4 1 4 7v3l-4-2v2h-2l-2-5z" fill="#07856F"/>
<path transform="translate(162,452)" d="m0 0 1 3-1 3h-2l-2 4-4 1-1-5 2-2 1-2z" fill="#058C82"/>
<path transform="translate(316,555)" d="m0 0h11l2 2-13 2-9 5-2-1 6-4 3-3z" fill="#E5FAFD"/>
<path transform="translate(424,480)" d="m0 0 11 2 4 2-7 3-8-3z" fill="#BDA759"/>
<path transform="translate(486,297)" d="m0 0h1v15l-3 1h-7l2-6h2l1 2h3z" fill="#FCEE14"/>
<path transform="translate(114,558)" d="m0 0 7 6 10 9-4 1-15-15z" fill="#138856"/>
<path transform="translate(147,522)" d="m0 0h1v13l-2 6-3-1 1-10z" fill="#05836A"/>
<path transform="translate(401,511)" d="m0 0 1 2-5 9-6 5v-5l4-2v-2h3l-1-5z" fill="#F5FBF2"/>
<path transform="translate(401,444)" d="m0 0 5 3-1 8-8-5 3-1z" fill="#0E8965"/>
<path transform="translate(387,440)" d="m0 0h3l-1 4-6 8h-3l1-5 3-3h2z" fill="#E8FAF8"/>
<path transform="translate(298,401)" d="m0 0 2 1-20 20v-3l4-5h2l2-4z" fill="#F5F00F"/>
<path transform="translate(336,372)" d="m0 0 3 1-26 13-2-1 10-6 8-4z" fill="#048F8F"/>
<path transform="translate(639,359)" d="m0 0 3 1 1 2v8l-5-1v-9z" fill="#11885A"/>
<path transform="translate(450,286)" d="m0 0h1v15l-3 4-1-4 1-13h2z" fill="#076C62"/>
<path transform="translate(366,493)" d="m0 0 2 1v6l5-2 1 3h-2v2l-5 1-3-2 1-8z" fill="#F1FBFC"/>
<path transform="translate(635,414)" d="m0 0 2 4 8 15 1 4-2 1-8-16-2-5z" fill="#128756"/>
<path transform="translate(219,754)" d="m0 0h9v6l-10-2-2-3z" fill="#068264"/>
<path transform="translate(139,651)" d="m0 0h5l12 5 1 3-5-1-10-4z" fill="#098C77"/>
<path transform="translate(105,466)" d="m0 0h2l1 5h2l1 5-3 1v-2l-4-1-2-2 1-2h2l-1-3z" fill="#F2F10D"/>
<path transform="translate(230,296)" d="m0 0h3l1 7-2 3-4-1 1-7z" fill="#138856"/>
<path transform="translate(690,281)" d="m0 0 2 2v8l-1 7h-1l-1-6-2-1 1-8z" fill="#F2F20D"/>
<path transform="translate(242,723)" d="m0 0 1 4h2v8l-3-1-1 2v-2h-2l2-10z" fill="#078263"/>
<path transform="translate(529,716)" d="m0 0 3 2-1 8-1 7h-2v-16z" fill="#097961"/>
<path transform="translate(558,684)" d="m0 0h1l-1 10-2 6-2-4v-7z" fill="#058670"/>
<path transform="translate(626,580)" d="m0 0 4 1 1 6 5 8v5h-2l-5-12-3-4z" fill="#0A7A5F"/>
<path transform="translate(391,772)" d="m0 0h15l2 2-16 1-7 1 1-3z" fill="#0A8B72"/>
<path transform="translate(705,564)" d="m0 0h1l-1 7-7 12h-2l2-6 5-10h2z" fill="#097560"/>
<path transform="translate(158,548)" d="m0 0 1 4-2 6-1-2-7-1 4-5z" fill="#05846D"/>
<path transform="translate(314,512)" d="m0 0 2 1v10l-2 1v-7l-12 3 2-3 9-4z" fill="#E2FAFE"/>
<path transform="translate(553,280)" d="m0 0h3l-1 21-2-1z" fill="#068265"/>
<path transform="translate(628,491)" d="m0 0 3 1 5 5 7 6 1 3h-2l-3-3h-3l-7-9z" fill="#108458"/>
<path transform="translate(108,419)" d="m0 0 3 1 4 3 1-4 1 7-1 2-5-2-3-3z" fill="#098260"/>
<path transform="translate(389,408)" d="m0 0 3 1 1 2h2v2l-6 3h-4l2-6z" fill="#078770"/>
<path transform="translate(616,617)" d="m0 0 4 1 4 5-1 5-3-1v-3h-2z" fill="#078C7D"/>
<path transform="translate(320,536)" d="m0 0h4l-2 4-10 3-4-2 11-4z" fill="#F4FBFC"/>
<path transform="translate(335,499)" d="m0 0h2l3 5 3 1-1 3-4 1-3-3-1-5z" fill="#EAFAF2"/>
<path transform="translate(228,282)" d="m0 0 5 1 1 7h-5l-1-1z" fill="#128756"/>
<path transform="translate(683,560)" d="m0 0 1 2 2 1-8 7-5 5v-2l-3-1 8-6z" fill="#148258"/>
<path transform="translate(278,435)" d="m0 0 2 1-2 4 7 1v1l-10 1-2-4z" fill="#E4FAFD"/>
<path transform="translate(390,808)" d="m0 0 8 1 2 2-1 2h-7l-3-2z" fill="#F2F20D"/>
<path transform="translate(403,526)" d="m0 0 7 1 3 3-1 4-9-5z" fill="#076962"/>
<path transform="translate(696,492)" d="m0 0 3 1-3 6v3l5 1-1 4-1-2-5-1-2-1 3-9z" fill="#098360"/>
<path transform="translate(350,496)" d="m0 0 3 2-4 4-6 1 2-6z" fill="#0C6B62"/>
<path transform="translate(302,495)" d="m0 0 6 1 8 4v1l-7-1-9-1-2-1v-2z" fill="#F1FBFC"/>
<path transform="translate(175,485)" d="m0 0 2 1-4 4h-2l-2 4-5 6-1-4 9-10z" fill="#178856"/>
<path transform="translate(182,477)" d="m0 0h3v3l-7 5-5 2 1-5h3l1-3 4-1z" fill="#086C60"/>
<path transform="translate(199,288)" d="m0 0 2 3 1 9h-3l-2-3v-7z" fill="#F2F20D"/>
<path transform="translate(213,798)" d="m0 0 8 1 2 5-7-1-3-2z" fill="#058D85"/>
<path transform="translate(149,575)" d="m0 0h1l-1 10h-4-1v-6l3-3 1 1z" fill="#068265"/>
<path transform="translate(321,521)" d="m0 0 1 4-4 6-2-3-1-5z" fill="#F2F20D"/>
<path transform="translate(155,510)" d="m0 0 2 1-7 18-1 6h-1v-7l3-9z" fill="#128757"/>
<path transform="translate(684,514)" d="m0 0 2 4-6 5-4 6-2-4 5-5z" fill="#128656"/>
<path transform="translate(512,516)" d="m0 0 5 2 5 5 3 6v6h-1l-3-9-9-9z" fill="#E2FAFE"/>
<path transform="translate(482,421)" d="m0 0h5l2 3-3 3-1 4h-2z" fill="#C39F7C"/>
<path transform="translate(650,688)" d="m0 0 4 1-9 4-7 2h-5v-2l15-4z" fill="#0B896B"/>
<path transform="translate(611,606)" d="m0 0 3 3 4 8h-2v2h-2l-3-5z" fill="#0D7A5C"/>
<path transform="translate(634,453)" d="m0 0 7 1 1 4 3 1-5 1-2-2-4-2z" fill="#078B7A"/>
<path transform="translate(321,418)" d="m0 0 4 2 6 2 1-2v5h5l-3 1-1 2-9-5z" fill="#EEFAFD"/>
<path transform="translate(198,406)" d="m0 0 1 2-6 13-4 2 2-5 5-11z" fill="#0B725E"/>
<path transform="translate(404,291)" d="m0 0 1 3h2v9l-5-4 1-7z" fill="#F2F20D"/>
<path transform="translate(509,787)" d="m0 0 3 9-7 1v-5l3-1z" fill="#088361"/>
<path transform="translate(408,524)" d="m0 0 4 1 5 5v4l-4 1-1-5-4-5z" fill="#EEFAF0"/>
<path transform="translate(656,479)" d="m0 0h1l-1 11-2 2-2-1-1-5h3l1-6z" fill="#068265"/>
<path transform="translate(113,468)" d="m0 0 7 6 5 5 1 2-6-2-7-7z" fill="#108558"/>
<path transform="translate(698,448)" d="m0 0 1 2-2 6v3h4l-2 4v-2l-4-1-2-4z" fill="#098361"/>
<path transform="translate(126,441)" d="m0 0h2l6 8-2 1-1 4-5-10z" fill="#0C795D"/>
<path transform="translate(227,802)" d="m0 0 10 1 1 3h-3v2l-4-1-1-2-3-1z" fill="#068C7E"/>
<path transform="translate(603,768)" d="m0 0h6l2 1v2l-4 2h-5l-1-3z" fill="#0E7C5A"/>
<path transform="translate(200,643)" d="m0 0 1 2h2l1-2-1 5-3 7h-3v-3z" fill="#0F7D5A"/>
<path transform="translate(277,575)" d="m0 0 3 2-7 3h-12l1-2 7-2v3z" fill="#E2FAFE"/>
<path transform="translate(287,549)" d="m0 0 4 2-2 5-5 5 2-11z" fill="#C9A05E"/>
<path transform="translate(353,276)" d="m0 0 1 3 3 1-1 12-3-6z" fill="#068265"/>
<path transform="translate(637,749)" d="m0 0h4v2l-11 4h-5v-2z" fill="#0B845F"/>
<path transform="translate(285,551)" d="m0 0 1 3-3 7-4 3-2-2z" fill="#DDBF51"/>
<path transform="translate(158,357)" d="m0 0h2l1 7-2 4-3-2 1-8z" fill="#138856"/>
<path transform="translate(575,756)" d="m0 0 9 1 2 2-1 1h-10z" fill="#068265"/>
<path transform="translate(638,738)" d="m0 0 4 1v4l-6 1-2-1 1-4z" fill="#138856"/>
<path transform="translate(435,465)" d="m0 0h5l2 3-9 2-4-1z" fill="#E2F9F7"/>
<path transform="translate(609,426)" d="m0 0 4 2 3 4-1 2-2-1-1 2-4-4z" fill="#088362"/>
<path transform="translate(549,745)" d="m0 0h2l-2 8-4 9h-1l1-8z" fill="#0A8360"/>
<path transform="translate(134,652)" d="m0 0h6l8 4 1 4-15-7z" fill="#0B845E"/>
<path transform="translate(549,505)" d="m0 0h1l2 12-2 3-7 1 1-2h3v-2l2-1-1-10z" fill="#FBFBFC"/>
<path transform="translate(549,453)" d="m0 0 3 3 4 9v3h-2l-5-12z" fill="#058E8B"/>
<path transform="translate(148,440)" d="m0 0 3 1-1 5-1 2h-2l-1 5h-1v-6z" fill="#086E61"/>
<path transform="translate(271,752)" d="m0 0 2 1 1 4 2 1-1 4-3 1-2-4z" fill="#058E86"/>
<path transform="translate(270,712)" d="m0 0h1v10l-1 5h-1l-1-8-2-1v-5l3 2z" fill="#078063"/>
<path transform="translate(655,600)" d="m0 0h2l-1 6-2 4-3-1 1-5z" fill="#098360"/>
<path transform="translate(134,578)" d="m0 0 5 2 3 4-1 2-4-2h-3l-1-5z" fill="#078162"/>
<path transform="translate(620,571)" d="m0 0 5 5 3 4h-2l-1 2-7-9z" fill="#0F805A"/>
<path transform="translate(360,415)" d="m0 0h8v1l-7 1 2 2-7 2v-2l-4-1z" fill="#E6FAFD"/>
<path transform="translate(567,316)" d="m0 0 3 1-1 5-6-1v-4z" fill="#EFE525"/>
<path transform="translate(580,798)" d="m0 0h5l-3 2h-2v3h5l-4 2h-3v-3h-5l3-2z" fill="#0C8865"/>
<path transform="translate(279,729)" d="m0 0 4 1 1 6h-4l-2-2z" fill="#138856"/>
<path transform="translate(299,657)" d="m0 0 9 4 7 5-1 2-15-9z" fill="#098C77"/>
<path transform="translate(677,657)" d="m0 0h2l-1 5-3 2h-3l2-6z" fill="#138856"/>
<path transform="translate(280,640)" d="m0 0 4 1 1 3 4 2 4 4-1 2-4-3v-2l-4-2-4-3z" fill="#078C7D"/>
<path transform="translate(605,573)" d="m0 0 5 1 1 7-4-2-2-3z" fill="#138856"/>
<path transform="translate(297,441)" d="m0 0 9 2v1h-20v-2z" fill="#E2FAFE"/>
<path transform="translate(254,317)" d="m0 0h6l1 4-1 1h-5z" fill="#F3EB25"/>
<path transform="translate(528,812)" d="m0 0h6l2 3-1 1h-10v-2h3z" fill="#068265"/>
<path transform="translate(708,700)" d="m0 0h1v6l-5 11-1-3 4-12z" fill="#0D855C"/>
<path transform="translate(135,699)" d="m0 0h7l2 4-4 1-5-3z" fill="#138856"/>
<path transform="translate(569,677)" d="m0 0 3 2v6h-4l-1-3z" fill="#138856"/>
<path transform="translate(124,606)" d="m0 0 5 2 9 5-4 1-2-1-1 2-4-4v-2z" fill="#15865A"/>
<path transform="translate(283,560)" d="m0 0v3l-11 11-2-1 4-5 8-7z" fill="#A3906D"/>
<path transform="translate(131,494)" d="m0 0 4 2 3 1 1 5-4 2z" fill="#138856"/>
<path transform="translate(368,491)" d="m0 0 4 2v6l-4 1z" fill="#37885D"/>
<path transform="translate(617,451)" d="m0 0 5 1 1 5-2 1-5-4z" fill="#108758"/>
<path transform="translate(362,445)" d="m0 0 3 1-4 2-2 5-2 2-4 2 2-4 3-3 2-4z" fill="#E5FAFD"/>
<path transform="translate(190,767)" d="m0 0 7 1 1 3-4 1-5-2z" fill="#138856"/>
<path transform="translate(660,699)" d="m0 0 3 1v3l-4 2h-4l1-4z" fill="#138856"/>
<path transform="translate(199,608)" d="m0 0 4 1-1 4-5 1-1-3z" fill="#138856"/>
<path transform="translate(164,585)" d="m0 0 3 1 1 5-5 1-2-1 2-4z" fill="#068D81"/>
<path transform="translate(193,570)" d="m0 0 1 4-4 4h-3l1-4z" fill="#138856"/>
<path transform="translate(378,539)" d="m0 0 9 2v3l-7-1-4-3z" fill="#F1FBFC"/>
<path transform="translate(540,519)" d="m0 0 8 1-1 2-3 1 2 5v3l-6-8z" fill="#E2FAFE"/>
<path transform="translate(394,497)" d="m0 0 3 1-1 6-5-1-3-3 6-1z" fill="#979E5C"/>
<path transform="translate(615,493)" d="m0 0 5 1 2 5-4 1-3-5z" fill="#128756"/>
<path transform="translate(375,484)" d="m0 0h6v3l-7 3-2-4h3z" fill="#26835B"/>
<path transform="translate(119,390)" d="m0 0 3 1 1 6-3 1-2-2v-5z" fill="#138856"/>
<path transform="translate(451,810)" d="m0 0h4l2 7h-6l-1-5z" fill="#068366"/>
<path transform="translate(430,743)" d="m0 0h1v7l-2 4h-3l1-5z" fill="#088362"/>
<path transform="translate(613,730)" d="m0 0h8v1h-5v2l-10 1v-2z" fill="#088A74"/>
<path transform="translate(167,693)" d="m0 0h8v2l5 2-3 2-4-3-6-2z" fill="#078B79"/>
<path transform="translate(695,619)" d="m0 0 1 2-4 7-1 3-2-2 1-5z" fill="#087761"/>
<path transform="translate(185,612)" d="m0 0 1 4-2 4-3 1-2-2 2-4z" fill="#086D61"/>
<path transform="translate(547,539)" d="m0 0h1v5l-8 4-4-1 3-1 2-4 6 1z" fill="#D5BD48"/>
<path transform="translate(512,491)" d="m0 0 10 3 3 2-5 1-6-3z" fill="#DCBD54"/>
<path transform="translate(131,487)" d="m0 0h3l3 6-2 2-4-3v-2l-2-1z" fill="#058D84"/>
<path transform="translate(360,474)" d="m0 0 6 2v4h-3v-2l-4 1z" fill="#0B8B70"/>
<path transform="translate(399,452)" d="m0 0 5 2v5l-3-1v-2l-4 1-2 2 1-4z" fill="#E2FAFD"/>
<path transform="translate(282,436)" d="m0 0 4 2v2l2 1-3 1-7-2v-2z" fill="#058E87"/>
<path transform="translate(461,289)" d="m0 0 2 2v7h-4l1-8z" fill="#138856"/>
<path transform="translate(395,804)" d="m0 0h15l2 2-5 1-12-2z" fill="#0B825F"/>
<path transform="translate(564,793)" d="m0 0h5l2 3-2 2-5-1-1-2z" fill="#128756"/>
<path transform="translate(155,737)" d="m0 0h7l2 1v3l-7-1-2-1z" fill="#138856"/>
<path transform="translate(252,702)" d="m0 0h3l1 6-1 2-3-1-1-6z" fill="#138856"/>
<path transform="translate(598,611)" d="m0 0 4 1 1 3-2 3-3-1-1-4z" fill="#138856"/>
<path transform="translate(655,569)" d="m0 0h2l-2 6-3 5h-3v-4h3l1-4z" fill="#068264"/>
<path transform="translate(493,499)" d="m0 0h4l6 7-1 2-5-5-4-1-1 2z" fill="#E2FAFE"/>
<path transform="translate(356,497)" d="m0 0 2 2-13 7h-2v-2z" fill="#EEF449"/>
<path transform="translate(682,473)" d="m0 0 3 2h-2l-1 3-5 5v-2l-2-1z" fill="#178358"/>
<path transform="translate(544,809)" d="m0 0h9l-3 1v2l-5 1-6-1v-1h5z" fill="#087C62"/>
<path transform="translate(573,802)" d="m0 0h5v3l-8 1h-3l3-3z" fill="#066964"/>
<path transform="translate(228,792)" d="m0 0h6l2 1-1 3-7-1z" fill="#138856"/>
<path transform="translate(526,750)" d="m0 0 2 2v6l-4 1v-6z" fill="#076B61"/>
<path transform="translate(518,730)" d="m0 0 3 1-2 7-3 1 1-8z" fill="#118258"/>
<path transform="translate(141,617)" d="m0 0 5 1 3 3-1 3-5-3z" fill="#078C7D"/>
<path transform="translate(613,537)" d="m0 0 5 2 1 4-2 1-4-3z" fill="#138856"/>
<path transform="translate(239,522)" d="m0 0h2l3 4h-3v13h-1z" fill="#E2FAFE"/>
<path transform="translate(114,514)" d="m0 0h2l7 8 1 2-4-1-6-7z" fill="#128756"/>
<path transform="translate(181,491)" d="m0 0 3 1-2 5-4 1 1-5z" fill="#118457"/>
<path transform="translate(359,485)" d="m0 0h12v7l-2-1-1-3-9-2z" fill="#F3F9D0"/>
<path transform="translate(696,430)" d="m0 0h2l-2 5-3 3h-2l1-4z" fill="#138856"/>
<path transform="translate(433,430)" d="m0 0h8l-2 2-8 4-2-1 1-3z" fill="#E2FAFE"/>
<path transform="translate(630,408)" d="m0 0 2 1v3h3v5l-3-1-3-4z" fill="#096F5F"/>
<path transform="translate(679,391)" d="m0 0h2l-1 7h-4l2-6z" fill="#128656"/>
<path transform="translate(642,276)" d="m0 0 4 1v5h-2l-1 5h-1z" fill="#068264"/>
<path transform="translate(257,265)" d="m0 0 6 3v2l-10-1z" fill="#F1EE24"/>
<path transform="translate(286,779)" d="m0 0 4 2 2 6-4-1-2-2z" fill="#0C855D"/>
<path transform="translate(131,612)" d="m0 0 9 3v2l-5 1-4-5z" fill="#078B7A"/>
<path transform="translate(632,539)" d="m0 0 6 4 2 3-4-1-2-2-1 2-3-4h2z" fill="#14805C"/>
<path transform="translate(407,534)" d="m0 0 8 1-1 3-10-1z" fill="#F1F216"/>
<path transform="translate(379,492)" d="m0 0 7 1v3l-1 3-6-5z" fill="#928F6A"/>
<path transform="translate(446,485)" d="m0 0h7v3h-10z" fill="#B39270"/>
</svg>
