<?xml version="1.0" standalone="no"?>
<!DOCTYPE svg PUBLIC "-//W3C//DTD SVG 20010904//EN"
 "http://www.w3.org/TR/2001/REC-SVG-20010904/DTD/svg10.dtd">
<svg version="1.0" xmlns="http://www.w3.org/2000/svg"
 width="288.000000pt" height="108.000000pt" viewBox="0 0 288.000000 108.000000"
 preserveAspectRatio="xMidYMid meet">
<metadata>
Created by potrace 1.16, written by Peter Selinger 2001-2019
</metadata>
<g transform="translate(0.000000,108.000000) scale(0.100000,-0.100000)"
fill="#000000" stroke="none">
<path d="M744 764 c26 -23 34 -36 29 -49 -4 -12 -3 -16 4 -12 8 5 10 -7 7 -35
-3 -34 -2 -38 5 -18 7 19 9 10 9 -40 -1 -53 -2 -59 -8 -30 l-7 35 -2 -35 c-1
-19 -4 -59 -8 -89 -4 -39 -3 -52 5 -47 7 4 9 19 5 37 -4 22 -2 28 8 24 8 -3
26 10 43 32 26 33 27 36 5 18 l-24 -20 24 28 c24 27 38 36 26 17 -3 -5 -1 -10
5 -10 7 0 14 9 17 20 3 11 9 17 14 14 5 -3 9 0 9 6 0 6 5 8 10 5 6 -3 10 -1
10 5 0 6 5 8 10 5 6 -3 10 1 10 10 0 9 -5 13 -11 9 -7 -4 -9 0 -5 14 5 15 -1
29 -23 51 -16 16 -32 27 -35 24 -3 -3 -8 2 -12 11 -3 9 -10 13 -15 10 -5 -3
-9 0 -9 6 0 7 -7 10 -15 6 -8 -3 -15 -1 -15 5 0 6 -9 8 -21 4 -15 -5 -19 -4
-15 4 4 6 3 11 -3 11 -5 0 -13 -5 -16 -10 -4 -6 -11 -7 -17 -4 -6 4 -5 9 3 15
10 6 6 8 -10 6 -22 -1 -22 -3 13 -33z"/>
<path d="M498 771 c-38 -13 -106 -52 -111 -65 -3 -7 12 -11 39 -12 71 -2 89
-21 115 -120 36 -135 67 -169 167 -181 38 -4 50 -2 55 10 4 11 0 13 -13 10
-12 -3 -29 5 -44 21 -29 28 -32 61 -16 161 19 114 -20 176 -112 181 -29 2 -65
-1 -80 -5z"/>
<path d="M274 596 c-52 -17 -165 -86 -158 -97 3 -5 18 -2 34 6 67 35 104 17
227 -104 96 -94 169 -136 221 -127 35 5 142 64 142 77 0 4 -17 10 -38 14 -51
8 -78 27 -155 110 -99 108 -189 147 -273 121z"/>
<path d="M2132 561 c-8 -4 -12 -19 -10 -32 3 -22 9 -25 63 -30 l60 -5 -60 -5
c-47 -3 -61 -8 -63 -21 -5 -27 120 -26 147 1 18 18 18 18 30 0 8 -14 23 -19
57 -19 65 0 84 13 84 58 0 51 -14 62 -76 62 -58 0 -84 -17 -84 -53 0 -18 -2
-19 -10 -7 -5 9 -32 17 -67 21 l-58 6 68 2 c50 1 68 4 65 14 -5 14 -126 22
-146 8z"/>
<path d="M990 390 c0 -5 5 -10 10 -10 6 0 10 -13 10 -30 0 -40 18 -38 23 3 l4
32 1 -32 c2 -35 22 -47 22 -13 0 25 16 26 23 1 4 -16 16 -18 96 -19 84 -1 91
0 91 18 0 11 5 20 10 20 6 0 10 -9 10 -21 0 -14 5 -19 14 -16 10 4 13 1 9 -9
-4 -10 2 -14 21 -14 24 0 26 4 26 39 l0 39 -51 0 c-32 0 -55 5 -60 13 -7 11
-11 11 -17 2 -4 -6 -14 -11 -22 -11 -8 1 -35 0 -59 0 -38 -2 -43 -4 -38 -22 3
-11 1 -20 -4 -20 -5 0 -9 9 -9 20 0 15 -7 20 -26 20 -14 0 -23 4 -19 10 4 6
-8 10 -29 10 -20 0 -36 -4 -36 -10z"/>
</g>
</svg>
