<?xml version="1.0" encoding="UTF-8"?>
<svg version="1.1" xmlns="http://www.w3.org/2000/svg" width="76" height="80">
<path d="M0 0 C6.26332951 3.46587404 11.82062197 8.64475702 16.23828125 14.23828125 C19.60001406 18.3795463 23.96358088 19.80346778 29.125 20.5625 C27.92991417 24.28054481 25.6607502 26.01594907 22.2421875 27.7890625 C17.43106129 29.54663259 12.75310146 29.61374058 7.9765625 27.703125 C4.04465827 25.33521241 0.91274732 22.39178419 -2.234375 19.08203125 C-2.83475586 18.45506348 -3.43513672 17.8280957 -4.05371094 17.18212891 C-5.24595731 15.91732491 -6.41708779 14.6321955 -7.56347656 13.32568359 C-11.41236871 9.18595159 -14.18543414 7.78810144 -19.85327148 7.45458984 C-22.49917994 7.59581573 -24.55949026 8.29270434 -26.875 9.5625 C-26.875 8.5725 -26.875 7.5825 -26.875 6.5625 C-24.35546875 4.7734375 -24.35546875 4.7734375 -21.0625 2.9375 C-19.98355469 2.32648437 -18.90460937 1.71546875 -17.79296875 1.0859375 C-11.9178656 -1.98138543 -6.11328771 -2.72803914 0 0 Z " fill="#CE2A16" transform="translate(26.875,34.4375)"/>
<path d="M0 0 C2.08138827 3.16816159 2.18245661 5.54787073 1.984375 9.28125 C1.95085938 10.28800781 1.91734375 11.29476563 1.8828125 12.33203125 C1.79424101 14.4447219 1.69005732 16.55681554 1.5703125 18.66796875 C1.48889966 21.55812471 1.45522947 24.15891824 2 27 C4.83279477 29.66971868 4.83279477 29.66971868 8 31 C8 31.66 8 32.32 8 33 C-3.4526749 32.5473251 -3.4526749 32.5473251 -8 28 C-10.09693041 23.61290669 -11.41594006 19.01011492 -12.76953125 14.3515625 C-13.01058594 13.55492188 -13.25164063 12.75828125 -13.5 11.9375 C-13.6959375 11.22464844 -13.891875 10.51179688 -14.09375 9.77734375 C-15.31330839 7.38553743 -16.51435437 6.92077749 -19 6 C-21.32495277 5.61250787 -23.65851268 5.27017161 -26 5 C-26 4.34 -26 3.68 -26 3 C-24.58671871 2.18162558 -23.16921654 1.37053781 -21.75 0.5625 C-20.56664062 -0.11619141 -20.56664062 -0.11619141 -19.359375 -0.80859375 C-12.81952092 -4.11100351 -6.21355113 -4.04603329 0 0 Z " fill="#EC4C18" transform="translate(50,20)"/>
<path d="M0 0 C7.92353646 0.19282943 15.1052011 1.99656838 22 6 C26.08465744 10.54470418 27.13197135 12.92931801 27 19 C25.96875 19.495 24.9375 19.99 23.875 20.5 C18.26712117 23.70775219 14.95622371 28.56597602 12.625 34.5 C12.41875 35.325 12.2125 36.15 12 37 C11.34 37 10.68 37 10 37 C10.04600342 36.38068604 10.09200684 35.76137207 10.1394043 35.12329102 C10.34067566 32.27066159 10.51422598 29.41696148 10.6875 26.5625 C10.76033203 25.58861328 10.83316406 24.61472656 10.90820312 23.61132812 C11.29419654 16.82238519 11.22044526 9.74616532 6.5612793 4.32641602 C4.55326824 2.62047011 2.46968933 1.86772868 0 1 C0 0.67 0 0.34 0 0 Z " fill="#F76D16" transform="translate(48,14)"/>
<path d="M0 0 C0.33 0 0.66 0 1 0 C1 1.65 1 3.3 1 5 C1.66 5 2.32 5 3 5 C2.54177532 8.46941546 2.10868317 11.67395049 1 15 C0.34 15 -0.32 15 -1 15 C-0.67 10.05 -0.34 5.1 0 0 Z " fill="#F99E65" transform="translate(59,36)"/>
<path d="M0 0 C1.60495567 0.11442461 3.20898119 0.24194694 4.8125 0.375 C5.70582031 0.44460938 6.59914063 0.51421875 7.51953125 0.5859375 C10 1 10 1 13 3 C12.01 3.495 12.01 3.495 11 4 C9.86649466 6.01669827 9.86649466 6.01669827 9 8 C8.814375 7.401875 8.62875 6.80375 8.4375 6.1875 C6.27726247 2.90018201 3.64892345 2.35145313 0 1 C0 0.67 0 0.34 0 0 Z " fill="#F99D65" transform="translate(48,14)"/>
<path d="M0 0 C0.886875 0.391875 1.77375 0.78375 2.6875 1.1875 C2.6875 1.5175 2.6875 1.8475 2.6875 2.1875 C0.70182292 2.67578125 -1.28385417 3.1640625 -3.26953125 3.65234375 C-4.96933202 4.09760705 -6.64551954 4.63183985 -8.3125 5.1875 C-8.3125 4.1975 -8.3125 3.2075 -8.3125 2.1875 C-5.19329267 -0.47300037 -4.048182 -0.9929503 0 0 Z " fill="#DD6F61" transform="translate(8.3125,38.8125)"/>
</svg>
